<ttFont>
          <CharString index="0">
            -95 callsubr
            50 47 15 22 43 hvcurveto
            -19 13 18 -11 22 hhcurveto
            -28 callsubr
            -17 -12 14 24 -8 hvcurveto
            144 103 84 191 -16 callgsubr
            -78 -170 -129 -98 vhcurveto
            -23 137 63 322 92 147 rrcurveto
            -3 18 18 -1 18 -80 callsubr
            -7 -7 0 1 -7 hvcurveto
            34 26 27 21 28 hhcurveto
            return
          </CharString>
          <CharString index="1">
            -105 callgsubr
            hintmask 11011000
            -107 callgsubr
          </CharString>
          <CharString index="2">
            rmoveto
            -77 -59 -45 -69 -52 hvcurveto
            40 -107 -114 50 -96 -87 callsubr
            90 108 -45 -39 106 hvcurveto
            -53 -77 -45 -103 -46 -107 rrcurveto
            -84 callsubr
            -82 callsubr
            return
          </CharString>
          <CharString index="3">
            rmoveto
            -89 -61 -194 -165 1 hvcurveto
            -74 -57 -62 -57 -50 hhcurveto
            -30 callgsubr
            139 195 178 vvcurveto
            -104 callgsubr
          </CharString>
          <CharString index="4">
            -56 callgsubr
            -59 callsubr
            hintmask 10011000
            -96 callgsubr
            hintmask 01011000
            168 -46 -245 -86 hhcurveto
            hintmask 11011000
            -61 callsubr
          </CharString>
          <CharString index="5">
            98 68 169 129 11 hvcurveto
            -1 8 9 -1 9 -75 callsubr
            -12 -10 1 3 -9 vhcurveto
            66 1 -16 49 -36 hhcurveto
            -45 -7 -104 -33 75 hvcurveto
            -116 -12 -55 -163 -81 -111 76 360 97 28 callgsubr
            18 -23 vhcurveto
            -134 -104 -405 200 hhcurveto
            endchar
          </CharString>
          <CharString index="6">
            rmoveto
            -13 7 -14 0 -15 -18 -36 -40 -59 -82 20 -9 14 -8 72 71 35 43 9 13 2 16 -15 7 rrcurveto
            return
          </CharString>
          <CharString index="7">
            -88 callgsubr
            21 -43 callsubr
            return
          </CharString>
          <CharString index="8">
            -1 10 11 -1 11 325 102 447 -220 hhcurveto
            -185 -97 -223 -183 1 hvcurveto
            -160 72 30 326 184 119 rrcurveto
            -28 25 38 -18 52 148 18 113 -130 hhcurveto
            return
          </CharString>
          <CharString index="9">
            hhcurveto
            81 137 303 -50 callsubr
            0 -129 -276 -59 return
          </CharString>
          <CharString index="10">
            rmoveto
            -7 -12 0 -13 17 -16 39 -38 76 -63 12 18 8 14 -67 76 -41 38 -12 10 -16 1 -9 -15 rrcurveto
            return
          </CharString>
          <CharString index="11">
            -85 callsubr
            -72 callgsubr
            return
          </CharString>
          <CharString index="12">
            -90 callgsubr
            109 81 47 73 64 hvcurveto
            -32 44 56 -20 71 hhcurveto
            return
          </CharString>
          <CharString index="13">
            rmoveto
            -64 -30 -71 0 hvcurveto
            23 hlineto
            0 20 42 29 vhcurveto
            32 24 -45 41 hhcurveto
            60 29 71 0 hvcurveto
            -22 hlineto
            0 -17 -36 -30 vhcurveto
            -39 -18 39 -38 hhcurveto
            return
          </CharString>
          <CharString index="14">
            rmoveto
            -48 callsubr
            hintmask 11000000
            -94 callgsubr
            hintmask 10100000
            -12 callsubr
            endchar
          </CharString>
          <CharString index="15">
            -41 300 -257 -21 256 85 -23 301 67 -20 hstemhm
            hintmask 10011000
            479 646 -91 callsubr
            -333 -95 -19 callgsubr
            hintmask 01101000
            -24 callsubr
            hintmask 01011000
            -60 callsubr
            329 -278 rmoveto
            -79 callsubr
            return
          </CharString>
          <CharString index="16">
            rmoveto
            -46 -100 -217 -478 -52 -108 -32 -65 29 -10 13 28 60 130 221 434 48 98 rrcurveto
            56 28 -3 -40 callsubr
            -10 hvcurveto
            return
          </CharString>
          <CharString index="17">
            -76 callsubr
            hintmask 01100000
            -17 callgsubr
            hintmask 11100000
            -64 callgsubr
          </CharString>
          <CharString index="18">
            599 -102 callgsubr
            return
          </CharString>
          <CharString index="19">
            rmoveto
            32 28 -10 -17 24 hvcurveto
            -52 -120 -54 -121 -71 -90 rrcurveto
            127 -105 44 231 154 hhcurveto
            return
          </CharString>
          <CharString index="20">
            -58 callgsubr
            22 0 hvcurveto
            -131 17 328 261 hhcurveto
            return
          </CharString>
          <CharString index="21">
            178 vvcurveto
            -103 callgsubr
            return
          </CharString>
          <CharString index="22">
            -68 80 370 125 hhcurveto
            25 12 -12 -13 hvcurveto
            -11 19 -1 12 vvcurveto
            return
          </CharString>
          <CharString index="23">
            19 -31 -37 12 -45 hhcurveto
            -181 -43 -267 -140 132 hvcurveto
            -73 -65 -78 -49 -101 return
          </CharString>
          <CharString index="24">
            653 -101 callsubr
            return
          </CharString>
          <CharString index="25">
            -265 2 400 225 182 -54 -258 -131 hhcurveto
            return
          </CharString>
          <CharString index="26">
            -254 -78 -528 191 hhcurveto
            30 3 19 0 hvcurveto
            -154 80 482 191 return
          </CharString>
          <CharString index="27">
            207 6 181 -88 hhcurveto
            -20 -9 -14 0 hvcurveto
            72 -23 -143 -165 hhcurveto
            return
          </CharString>
          <CharString index="28">
            -69 callsubr
            hintmask 10011000
            -24 callsubr
            hintmask 01101000
            -60 callsubr
            return
          </CharString>
          <CharString index="29">
            508 -98 callgsubr
            return
          </CharString>
          <CharString index="30">
            -6 25 29 -3 33 -34 callsubr
            -156 -100 -108 -108 -29 hvcurveto
            80 return
          </CharString>
          <CharString index="31">
            22 callgsubr
            -67 callgsubr
            return
          </CharString>
          <CharString index="32">
            hhcurveto
            59 31 47 34 hvcurveto
            9 -19 1 -9 vvcurveto
            -17 -22 -37 -42 return
          </CharString>
          <CharString index="33">
            -175 -3 27 -85 callgsubr
            return
          </CharString>
          <CharString index="34">
            56 15 -17 37 -33 callsubr
            -5 hvcurveto
            return
          </CharString>
          <CharString index="35">
            20 callsubr
            481 301 -25 25 hstemhm
            177 39 257 66 hintmask 10101100
            190 72 rmoveto
            hintmask 01101100
            32 callsubr
            hintmask 10101100
            -88 callgsubr
            18 -43 callsubr
            26 89 rmoveto
            190 323 86 217 -18 callgsubr
            22 callsubr
            hintmask 10011100
            -5 callgsubr
            hvcurveto
            -224 -296 -87 -188 -18 39 2 16 vvcurveto
            endchar
          </CharString>
          <CharString index="36">
            -127 28 120 301 -21 129 -26 26 204 102 -102 181 return
          </CharString>
          <CharString index="37">
            -46 34 234 127 115 -85 -330 -182 hhcurveto
            -157 377 rmoveto
            -358 107 449 224 hhcurveto
            101 64 -81 -25 106 hvcurveto
            -53 -94 -53 -125 -60 -115 rrcurveto
            -6 -24 -26 -3 -28 hhcurveto
            -262 -315 rmoveto
            -156 9 112 87 hhcurveto
            65 51 -37 -44 53 hvcurveto
            -20 -34 -36 -11 -39 hhcurveto
            662 785 rmoveto
            49 -44 -94 -71 hhcurveto
            -13 -12 1 2 -12 hvcurveto
            55 34 34 36 35 hhcurveto
            endchar
          </CharString>
          <CharString index="38">
            16 15 20 10 20 92 -49 -318 -103 hhcurveto
            -78 27 229 22 65 hvcurveto
            6 2 -2 21 -11 -3 rrcurveto
            return
          </CharString>
          <CharString index="39">
            600 -71 callsubr
            return
          </CharString>
          <CharString index="40">
            -66 callsubr
            hstemhm
            180 42 13 callgsubr
            return
          </CharString>
          <CharString index="41">
            -321 225 -26 26 397 -31 callgsubr
            -25 267 -23 141 return
          </CharString>
          <CharString index="42">
            -91 callsubr
            -428 -284 -62 callgsubr
            return
          </CharString>
          <CharString index="43">
            -86 callgsubr
            endchar
          </CharString>
          <CharString index="44">
            rmoveto
            26 53 21 41 18 34 rrcurveto
            10 -49 28 -71 -96 vvcurveto
            -112 -33 -94 -61 -70 52 194 65 91 vhcurveto
            11 8 -7 20 -13 -9 rrcurveto
            -71 -102 -78 -237 122 hhcurveto
            78 72 75 120 105 -51 78 -21 64 hvcurveto
            -14 48 38 18 28 vvcurveto
            8 -6 13 -13 1 vhcurveto
            -2 hlineto
            -21 -12 -28 -36 -2 hvcurveto
            -21 -39 -32 -62 -35 -69 rrcurveto
            endchar
          </CharString>
          <CharString index="45">
            1003 -97 callsubr
            return
          </CharString>
          <CharString index="46">
            0 7 -52 callsubr
            -226 -48 -427 333 hhcurveto
            endchar
          </CharString>
          <CharString index="47">
            146 79 363 -154 hhcurveto
            -46 -32 -28 -25 -17 hvcurveto
            -6 -9 22 0 13 13 rrcurveto
            return
          </CharString>
          <CharString index="48">
            -17 -6 -18 0 hvcurveto
            61 -16 -155 -172 hhcurveto
            -20 hlineto
            61 19 31 39 54 hhcurveto
            return
          </CharString>
          <CharString index="49">
            rmoveto
            -213 -102 -295 -172 90 hvcurveto
            -17 -50 -9 -52 -56 vvcurveto
            -128 72 -121 109 vhcurveto
            8 -2 20 -6 hhcurveto
            -92 -60 103 115 48 6 45 12 42 hvcurveto
            -53 40 64 -35 91 hhcurveto
            249 93 188 212 76 -19 108 -12 89 hvcurveto
            74 69 51 64 -2 68 rrcurveto
            42 -2 -23 33 -41 hhcurveto
            return
          </CharString>
          <CharString index="50">
            -113 27 -27 163 -19 283 -19 58 281 129 -129 185 return
          </CharString>
          <CharString index="51">
            rmoveto
            0 3 22 -25 vhcurveto
            -113 -27 -184 151 hhcurveto
            169 52 191 69 -85 hvcurveto
            59 61 -6 107 -109 -117 -12 -125 58 hhcurveto
            16 4 13 0 hvcurveto
            -35 9 91 68 hhcurveto
            66 1 -79 -49 -36 hvcurveto
            4 -13 -15 3 -16 -73 -15 -63 65 hhcurveto
            29 25 7 13 20 hvcurveto
            return
          </CharString>
          <CharString index="52">
            -57 callsubr
            hstemhm
            hintmask 10100100
            return
          </CharString>
          <CharString index="53">
            rmoveto
            0 145 92 33 21 vhcurveto
            7 5 2 4 -5 7 rrcurveto
            -30 42 -100 116 0 vvcurveto
            -27 vlineto
            87 -128 -139 -107 rlineto
            return
          </CharString>
          <CharString index="54">
            rmoveto
            -91 -77 54 53 -76 hvcurveto
            75 62 63 97 55 103 111 35 75 86 32 95 4 14 -34 5 -4 -13 -27 -80 -55 -74 -87 -37 57 113 49 116 46 86 rrcurveto
            -2 11 11 0 12 132 64 163 -101 hhcurveto
            -47 -44 -45 -68 -42 hvcurveto
            return
          </CharString>
          <CharString index="55">
            -19 21 vhcurveto
            126 24 283 -215 return
          </CharString>
          <CharString index="56">
            -47 -42 -8 -14 -39 hvcurveto
            -8 24 -1 28 5 30 rrcurveto
            return
          </CharString>
          <CharString index="57">
            0 hvcurveto
            -27 hlineto
            return
          </CharString>
          <CharString index="58">
            195 -86 callsubr
            return
          </CharString>
          <CharString index="59">
            -423 -193 -871 415 hhcurveto
            return
          </CharString>
          <CharString index="60">
            132 130 302 -50 callsubr
            return
          </CharString>
          <CharString index="61">
            139 -3 141 -61 hhcurveto
            -16 -5 -15 0 hvcurveto
            48 -14 -100 -2 -92 hvcurveto
            35 13 15 22 17 hhcurveto
            0 -3 14 -17 -25 -23 -26 -43 -21 vhcurveto
            -22 3 -21 4 -21 5 rrcurveto
            32 26 31 20 40 hhcurveto
            return
          </CharString>
          <CharString index="62">
            41 -8 -107 -93 -60 -29 38 -43 hhcurveto
            -4 -2 0 -1 -4 hvcurveto
            64 76 105 124 65 72 rrcurveto
            31 58 26 46 -20 hhcurveto
            -12 -26 -21 -32 -33 hvcurveto
            -8 -21 -27 -5 -29 -97 17 64 26 hhcurveto
            return
          </CharString>
          <CharString index="63">
            -105 vvcurveto
            -24 callgsubr
            -15 -9 24 41 hvcurveto
            return
          </CharString>
          <CharString index="64">
            91 -43 hhcurveto
            return
          </CharString>
          <CharString index="65">
            20 hlineto
            448 178 479 -255 hhcurveto
            -222 -174 -226 -220 -59 hvcurveto
            74 -309 62 483 318 hhcurveto
            83 49 -33 -57 19 hvcurveto
            5 -18 48 4 -9 19 rrcurveto
            return
          </CharString>
          <CharString index="66">
            32 -305 28 514 381 480 -148 -792 -320 hhcurveto
            -59 -49 11 15 -43 hvcurveto
            49 48 29 71 19 79 112 15 69 75 27 85 3 12 -18 4 -3 -11 return
          </CharString>
          <CharString index="67">
            36 4 callgsubr
            -11 -3 -18 return
          </CharString>
          <CharString index="68">
            rrcurveto
            49 104 137 334 -117 hhcurveto
            -118 -52 -384 -357 -78 hvcurveto
            252 718 rmoveto
            62 -100 -271 -59 -84 hvcurveto
            177 34 40 153 48 hhcurveto
            endchar
          </CharString>
          <CharString index="69">
            46 4 20 -18 return
          </CharString>
          <CharString index="70">
            -215 -88 -32 -522 142 119 51 813 265 hhcurveto
            0 -5 29 -32 vhcurveto
            -232 -88 -785 -66 hhcurveto
            -60 13 480 196 59 hvcurveto
            12 hlineto
            return
          </CharString>
          <CharString index="71">
            -75 -61 -137 -44 callsubr
            return
          </CharString>
          <CharString index="72">
            141 -71 -219 -218 hhcurveto
            return
          </CharString>
          <CharString index="73">
            285 64 267 -195 hhcurveto
            return
          </CharString>
          <CharString index="74">
            4 callgsubr
            -8 -3 -18 return
          </CharString>
          <CharString index="75">
            2 114 -38 callsubr
            -130 return
          </CharString>
          <CharString index="76">
            hhcurveto
            9 5 6 14 3 hvcurveto
            return
          </CharString>
          <CharString index="77">
            -19 49 55 -16 70 407 137 842 -548 hhcurveto
            -431 -72 -569 -25 382 hvcurveto
            -20 -70 -26 -62 -37 -42 rrcurveto
            25 -58 -52 25 -58 hhcurveto
            return
          </CharString>
          <CharString index="78">
            2 callgsubr
            -66 -61 -101 -101 -45 vhcurveto
            -6 hlineto
            16 80 -37 callgsubr
          </CharString>
          <CharString index="79">
            19 10 20 0 hvcurveto
            return
          </CharString>
          <CharString index="80">
            -23 callgsubr
            -3 callgsubr
            return
          </CharString>
          <CharString index="81">
            -12 -17 callsubr
            63 56 return
          </CharString>
          <CharString index="82">
            7 -73 11 -86 -66 vvcurveto
            -188 -75 -186 -208 -87 -58 37 55 -34 vhcurveto
            53 159 125 123 124 106 rrcurveto
            return
          </CharString>
          <CharString index="83">
            -30 -111 -47 -263 151 hhcurveto
            return
          </CharString>
          <CharString index="84">
            -52 callgsubr
            24 5 117 359 81 hhcurveto
            return
          </CharString>
          <CharString index="85">
            -34 callgsubr
            -3 callgsubr
            return
          </CharString>
          <CharString index="86">
            0 -3 26 -31 vhcurveto
            -67 -20 -128 150 hhcurveto
            21 20 3 5 19 hvcurveto
            -101 -107 -103 -122 -70 -88 rrcurveto
            endchar
          </CharString>
          <CharString index="87">
            -54 -19 35 -36 hhcurveto
            -2 hlineto
            75 63 140 87 103 vvcurveto
            48 -30 33 -62 vhcurveto
            -145 -36 -200 100 hhcurveto
            return
          </CharString>
          <CharString index="88">
            -4 callgsubr
            38 -4 -21 462 32 return
          </CharString>
          <CharString index="89">
            hhcurveto
            23 5 20 0 hvcurveto
            return
          </CharString>
          <CharString index="90">
            0 27 269 28 return
          </CharString>
          <CharString index="91">
            0 1 19 -18 vhcurveto
            return
          </CharString>
          <CharString index="92">
            -89 -198 -46 -48 52 254 89 hhcurveto
            12 8 -7 -10 hvcurveto
            -8 23 4 9 vvcurveto
            17 -14 20 -29 vhcurveto
            return
          </CharString>
          <CharString index="93">
            -14 -12 -7 -22 -5 hvcurveto
            -52 -14 -16 -99 21 hhcurveto
            17 32 96 54 12 hvcurveto
            16 3 -7 14 -17 hhcurveto
            return
          </CharString>
          <CharString index="94">
            378 -52 callgsubr
            return
          </CharString>
          <CharString index="95">
            0 0 21 -19 vhcurveto
            return
          </CharString>
          <CharString index="96">
            0 -4 17 -16 return
          </CharString>
          <CharString index="97">
            -177 38 279 183 hhcurveto
            0 -8 19 -22 vhcurveto
            -173 -65 -325 240 hhcurveto
            return
          </CharString>
          <CharString index="98">
            rmoveto
            -126 13 80 65 hhcurveto
            52 47 -21 -22 51 hvcurveto
            -23 -28 -33 -14 -41 hhcurveto
            endchar
          </CharString>
          <CharString index="99">
            -79 -151 9 -80 -25 callgsubr
          </CharString>
          <CharString index="100">
            -111 vmoveto
            -25 -19 21 24 26 19 19 25 25 21 -19 -26 -24 -21 -21 -25 hvcurveto
            return
          </CharString>
          <CharString index="101">
            -96 51 38 165 -122 272 -179 29 127 47 336 40 73 36 return
          </CharString>
          <CharString index="102">
            -227 -54 -424 334 hhcurveto
            return
          </CharString>
          <CharString index="103">
            hhcurveto
            -11 callsubr
            return
          </CharString>
          <CharString index="104">
            -127 28 75 67 -22 301 -21 147 261 109 -42 42 -42 74 return
          </CharString>
          <CharString index="105">
            91 63 25 180 -66 hhcurveto
            -20 -4 -17 0 hvcurveto
            30 -12 -168 -80 -43 hvcurveto
            return
          </CharString>
          <CharString index="106">
            -27 5 27 41 hhcurveto
            6 6 -1 -1 7 hvcurveto
            -16 -11 -13 -9 -14 hhcurveto
            endchar
          </CharString>
          <CharString index="107">
            -146 18 179 91 2 callsubr
            -103 -32 -222 202 return
          </CharString>
          <CharString index="108">
            rmoveto
            -38 13 29 48 hhcurveto
            11 10 -3 -5 9 hvcurveto
            -13 -15 -18 -8 -20 hhcurveto
            return
          </CharString>
          <CharString index="109">
            hhcurveto
            0 -7 19 -23 vhcurveto
            return
          </CharString>
          <CharString index="110">
            4 -23 62 -62 182 -138 -21 49 28 244 38 -38 128 return
          </CharString>
          <CharString index="111">
            102 202 -32 callsubr
            -182 9 -99 return
          </CharString>
          <CharString index="112">
            15 4 13 0 hvcurveto
            -63 23 166 92 hhcurveto
            41 13 -20 -36 hvcurveto
            return
          </CharString>
          <CharString index="113">
            210 29 -10 -21 hstemhm
            hintmask 01000000
            85 208 rmoveto
            hintmask 10000000
            102 return
          </CharString>
          <CharString index="114">
            91 rmoveto
            -105 -18 -132 187 hhcurveto
            57 45 16 27 36 hvcurveto
            return
          </CharString>
          <CharString index="115">
            63 -30 -61 47 -103 hhcurveto
            -349 -68 -527 -78 339 hvcurveto
            return
          </CharString>
          <CharString index="116">
            -17 callsubr
            -28 147 return
          </CharString>
          <CharString index="117">
            89 -21 287 -20 hstem
            return
          </CharString>
          <CharString index="118">
            195 178 vvcurveto
            return
          </CharString>
          <CharString index="119">
            62 0 28 -10 -21 return
          </CharString>
          <CharString index="120">
            -167 vvcurveto
            -76 return
          </CharString>
          <CharString index="121">
            hvcurveto
            7 hlineto
            return
          </CharString>
          <CharString index="122">
            0 7 -19 23 vhcurveto
            118 10 219 -164 hhcurveto
            return
          </CharString>
          <CharString index="123">
            -26 129 -91 -21 89 61 -61 85 -85 242 return
          </CharString>
          <CharString index="124">
            108 19 153 -47 hhcurveto
            -12 -2 -13 0 hvcurveto
            return
          </CharString>
          <CharString index="125">
            20 1 -8 10 -9 hhcurveto
            -23 -13 -20 -62 -1 hvcurveto
            return
          </CharString>
          <CharString index="126">
            327 27 -27 50 429 26 111 25 hstemhm
            return
          </CharString>
          <CharString index="127">
            -19 91 -57 -21 return
          </CharString>
          <CharString index="128">
            113 80 17 hvcurveto
            31 6 -7 20 -15 hhcurveto
            return
          </CharString>
          <CharString index="129">
            22 0 14 0 hvcurveto
            return
          </CharString>
          <CharString index="130">
            73 -18 63 -16 158 -125 125 return
          </CharString>
          <CharString index="131">
            0 2 -11 10 vhcurveto
            67 27 151 -96 return
          </CharString>
          <CharString index="132">
            -6 -45 21 -7 3 18 return
          </CharString>
          <CharString index="133">
            35 10 29 hstemhm
            return
          </CharString>
          <CharString index="134">
            rmoveto
            148 -101 -327 -221 hhcurveto
            return
          </CharString>
          <CharString index="135">
            125 47 return
          </CharString>
          <CharString index="136">
            701 -20 hstemhm
            143 30 -14 return
          </CharString>
          <CharString index="137">
            -33 26 -13 -21 48 -21 80 25 return
          </CharString>
          <CharString index="138">
            2 -13 -21 55 -21 403 26 return
          </CharString>
          <CharString index="139">
            -45 19 -42 callgsubr
            return
          </CharString>
          <CharString index="140">
            17 8 -11 -18 hvcurveto
            return
          </CharString>
        <CharString name=".notdef">
          -66 endchar
        </CharString>
        <CharString name=".null">
          -405 endchar
        </CharString>
        <CharString name="A">
          650 -71 callsubr
          3 -20 hstemhm
          hintmask 10101010
          1012 818 -105 callgsubr
          hintmask 11011010
          -107 callgsubr
        </CharString>
        <CharString name="AE">
          1019 -321 222 -28 28 -28 170 -22 301 -21 113 -24 40 -40 113 -22 98 -25 25 -25 267 hstemhm
          728 211 -42 42 hintmask 0101010001100000
          1057 554 rmoveto
          -34 callsubr
          -230 -108 -233 -124 60 hvcurveto
          -102 -51 -67 -97 -25 -101 -15 58 -29 63 -49 42 rrcurveto
          217 83 77 204 173 hhcurveto
          0 1 19 -18 -164 -88 -204 -215 -92 vhcurveto
          -84 callsubr
          hhcurveto
          hintmask 0010100100100000
          -82 callsubr
          hintmask 0101010100100000
          -95 callsubr
          -1 23 rlineto
          -68 callgsubr
          58 -60 34 -110 -52 vvcurveto
          -113 52 -102 119 -29 vhcurveto
          hintmask 1001001010010000
          -70 callgsubr
          -99 callsubr
          hintmask 1001010100100000
          -47 -42 -8 -14 -39 hvcurveto
          110 -36 107 207 159 -35 callsubr
          hintmask 1000100001100000
          128 -278 -83 callgsubr
          -660 103 -88 callsubr
          hintmask 1000100100100000
          579 77 -74 callgsubr
        </CharString>
        <CharString name="Aacute">
          -44 callgsubr
          1142 -61 callgsubr
          -130 -205 -106 callsubr
        </CharString>
        <CharString name="Acircumflex">
          -44 callgsubr
          1075 -66 callgsubr
          -39 -60 -106 callsubr
        </CharString>
        <CharString name="Adieresis">
          -68 callsubr
          63 91 hstemhm
          hintmask 10101010
          933 -73 callgsubr
          -47 -151 -105 callsubr
          hintmask 11010110
          -107 callsubr
          hintmask 11011010
          -107 callgsubr
        </CharString>
        <CharString name="Agrave">
          -44 callgsubr
          881 -62 callsubr
          131 -185 -106 callsubr
        </CharString>
        <CharString name="Aring">
          -68 callsubr
          -16 140 -21 132 hstemhm
          931 133 hintmask 1101100110000000
          996 1050 1 callgsubr
          hintmask 1010101010000000
          -7 callsubr
          16 -121 -105 callsubr
          hintmask 1101010110000000
          -107 callsubr
          hintmask 1101101010000000
          -107 callgsubr
        </CharString>
        <CharString name="Atilde">
          -68 callsubr
          60 26 callsubr
          hintmask 10101011
          942 949 -94 callsubr
          70 -131 -105 callsubr
          hintmask 11010111
          -107 callsubr
          hintmask 11011011
          -107 callgsubr
        </CharString>
        <CharString name="B">
          498 -121 30 29 27 279 56 -23 38 11 26 -26 201 -23 196 91 25 hstemhm
          hintmask 11100101
          436 527 rmoveto
          -7 -6 0 -1 -6 hvcurveto
          92 13 22 65 54 hhcurveto
          hintmask 11101011
          -11 callsubr
          -68 -31 -77 -104 -23 vhcurveto
          -127 -32 -13 -116 108 -35 rrcurveto
          -185 -31 -41 -186 -148 -10 callsubr
          199 46 196 192 22 14 callsubr
          98 82 41 58 59 hvcurveto
          -162 147 -122 -354 -178 hhcurveto
          hintmask 11011011
          -174 132 368 194 hhcurveto
          hintmask 11101011
          13 0 23 -12 -220 -162 -421 239 hhcurveto
          255 109 401 171 -197 hvcurveto
          145 120 -15 220 -262 -436 -79 -524 209 hhcurveto
          hintmask 11010101
          21 10 23 0 hvcurveto
          -178 68 476 385 hhcurveto
          190 12 -181 -129 -86 hvcurveto
          28 -49 -62 18 -77 hhcurveto
          -22 -24 rmoveto
          hintmask 11101011
          7 7 1 8 hhcurveto
          72 57 -18 -30 41 hvcurveto
          -60 -48 -72 -44 -85 hhcurveto
          -3 hlineto
          6 53 4 51 6 47 rrcurveto
          -78 -141 rmoveto
          -73 27 10 75 86 28 -8 -41 -7 -44 -8 -45 rrcurveto
          endchar
        </CharString>
        <CharString name="C">
          304 -274 245 19 callsubr
          216 44 hintmask 11011100
          376 829 rmoveto
          8 callsubr
          -37 -162 29 -153 120 -52 rrcurveto
          -128 -5 47 -113 113 hhcurveto
          30 3 19 0 hvcurveto
          -112 -39 96 112 7 hvcurveto
          -4 17 19 -2 20 260 111 378 -205 hhcurveto
          -150 -95 -167 -157 -18 hvcurveto
          -74 56 -6 130 35 137 rrcurveto
          -42 callsubr
          176 -52 rmoveto
          hintmask 10111100
          -9 callgsubr
          -61 -479 27 callsubr
          -21 -18 3 5 -16 hvcurveto
          151 19 96 168 114 hhcurveto
          endchar
        </CharString>
        <CharString name="CR">
          -105 endchar
        </CharString>
        <CharString name="Ccedilla">
          253 -233 60 -60 137 -18 85 19 callsubr
          hintmask 10110110
          441 298 27 callsubr
          -163 -27 170 183 47 hvcurveto
          -42 callsubr
          8 callsubr
          -44 -193 49 -181 187 -12 rrcurveto
          -29 -19 -28 -49 22 -20 callgsubr
          hintmask 01010110
          -13 callgsubr
          31 56 rlineto
          4 258 109 374 -204 hhcurveto
          70 452 rmoveto
          hintmask 10101110
          -9 callgsubr
          endchar
        </CharString>
        <CharString name="D">
          475 30 callsubr
          613 105 hstemhm
          hintmask 01111000
          37 7 callsubr
          hintmask 10011000
          -30 callsubr
          510 306 rmoveto
          -24 -76 -62 -67 -98 -14 rrcurveto
          211 47 -13 253 116 -4 callsubr
          -130 -13 -269 -213 -55 vhcurveto
          -41 callsubr
          rrcurveto
          hintmask 01111000
          -462 -411 -9 callsubr
        </CharString>
        <CharString name="E">
          301 -67 callsubr
          279 939 -106 callgsubr
        </CharString>
        <CharString name="Eacute">
          252 -67 callsubr
          577 -61 callgsubr
          -298 -84 -106 callgsubr
        </CharString>
        <CharString name="Ecircumflex">
          252 -67 callsubr
          586 -66 callgsubr
          -283 61 -106 callgsubr
        </CharString>
        <CharString name="Edieresis">
          252 -66 callsubr
          -61 91 hstemhm
          180 42 hintmask 1010100011000000
          440 -73 callgsubr
          hintmask 1010100101000000
          -287 -30 -89 callgsubr
          hintmask 0101010101000000
          -99 callsubr
          hintmask 1010100101000000
          -51 callsubr
          hintmask 1010001011000000
          -79 callgsubr
          hintmask 1010100101000000
          -101 callgsubr
        </CharString>
        <CharString name="Egrave">
          252 -67 callsubr
          379 -62 callsubr
          -100 -64 -106 callgsubr
        </CharString>
        <CharString name="Eth">
          425 30 callsubr
          124 261 -22 267 -17 105 hstemhm
          hintmask 01111010
          -13 7 callsubr
          hintmask 10011010
          -30 callsubr
          hintmask 10010100
          157 363 rmoveto
          147 hlineto
          -14 -70 -14 -75 -18 -70 rrcurveto
          -41 callsubr
          -24 -76 -62 -67 -98 -14 15 71 9 75 10 69 rrcurveto
          1 43 41 0 30 hhcurveto
          hintmask 10011010
          -28 callgsubr
          -37 -52 2 2 -54 hvcurveto
          125 18 22 99 73 hhcurveto
          hintmask 01110100
          -11 callsubr
          -82 -36 -107 -132 -28 vhcurveto
          2 -43 -41 1 -30 -46 callgsubr
          -109 -468 -9 callsubr
        </CharString>
        <CharString name="Euro">
          140 -29 267 -224 -21 223 163 -20 241 -26 26 hstemhm
          416 38 hintmask 01101100
          -22 216 rmoveto
          89 hlineto
          hintmask 10010100
          -131 -16 42 -114 134 hhcurveto
          63 51 42 56 38 hvcurveto
          6 9 -24 15 -9 -15 rrcurveto
          hintmask 01101100
          -48 -31 -45 -37 -49 hhcurveto
          -81 -24 104 120 15 hvcurveto
          53 55 1 57 hhcurveto
          hintmask 10010100
          -28 callgsubr
          -75 -61 1 1 -58 hvcurveto
          6 39 10 40 14 39 rrcurveto
          50 52 1 53 hhcurveto
          hintmask 01101100
          -28 callgsubr
          -69 -57 0 1 -53 hvcurveto
          107 41 66 87 77 15 callgsubr
          40 1 -24 33 -53 hhcurveto
          -110 -96 -99 -120 -56 hvcurveto
          1 -25 -25 0 -26 33 callgsubr
          105 hlineto
          -16 -38 -12 -39 -7 -39 rrcurveto
          -54 hlineto
          33 callgsubr
          endchar
        </CharString>
        <CharString name="F">
          297 -75 27 309 92 -92 281 -19 173 -17 47 -30 30 -30 95 -95 120 hstemhm
          hintmask 10101000
          324 386 rmoveto
          -19 vlineto
          0 16 -13 30 -6 vhcurveto
          -194 -31 -36 -202 -154 -7 callgsubr
          hhcurveto
          208 37 219 202 22 hvcurveto
          29 3 26 7 23 10 rrcurveto
          -56 17 -47 38 16 1 12 0 vhcurveto
          -33 -7 54 58 7 hvcurveto
          58 88 23 97 -48 hhcurveto
          -59 -35 -80 -74 -7 hvcurveto
          -22 -11 -26 -8 -29 -4 rrcurveto
          165 17 9 149 88 hhcurveto
          hintmask 11000001
          -11 callsubr
          -103 -26 -159 -170 -27 vhcurveto
          -29 6 -20 13 0 vvcurveto
          445 430 rmoveto
          -22 -6 -24 0 hvcurveto
          hintmask 11000100
          15 11 -66 -118 hhcurveto
          hintmask 11000010
          -117 -93 65 -14 callgsubr
          91 -74 154 hhcurveto
          hintmask 11000001
          132 9 120 -56 hhcurveto
          hintmask 11010000
          -157 -293 rmoveto
          17 -17 -62 -46 -58 hvcurveto
          56 11 23 52 24 hhcurveto
          endchar
        </CharString>
        <CharString name="G">
          355 -4 callgsubr
          41 -25 25 388 47 -31 31 377 -20 hstemhm
          hintmask 01001010
          148 -278 rmoveto
          126 24 283 -215 hhcurveto
          hintmask 10011010
          -5 callsubr
          318 65 317 246 30 hvcurveto
          135 95 52 183 -73 hhcurveto
          -86 -16 -168 -187 -33 hvcurveto
          -47 -41 -47 -33 -47 hhcurveto
          -123 0 195 193 58 hvcurveto
          8 hlineto
          317 161 398 -192 hhcurveto
          -155 -135 -177 -189 -65 hvcurveto
          54 -223 61 322 204 hhcurveto
          0 0 16 -17 -208 -66 -355 -60 242 vhcurveto
          -208 -65 22 -214 177 hhcurveto
          43 43 25 38 41 hvcurveto
          -224 -42 -73 -236 -245 hhcurveto
          hintmask 10101010
          -35 callgsubr
          hintmask 01000110
          0 6 -19 21 vhcurveto
          423 1068 rmoveto
          135 -122 -351 -287 hhcurveto
          -1 hlineto
          180 59 109 171 107 hhcurveto
          47 -359 rmoveto
          32 -32 -119 -108 -62 hvcurveto
          129 14 8 98 40 hhcurveto
          endchar
        </CharString>
        <CharString name="H">
          456 -155 -21 97 25 904 -20 hstem
          132 26 791 26 vstem
          613 817 rmoveto
          -18 -6 -17 0 hvcurveto
          55 -23 -146 -25 -162 hvcurveto
          54 21 30 35 45 -4 callsubr
          -55 -39 -43 -66 -29 vhcurveto
          -41 -93 11 -37 -265 -26 -348 159 hhcurveto
          26 1 22 0 hvcurveto
          -121 -3 302 241 hhcurveto
          24 84 -10 -1 41 hvcurveto
          -37 -97 -20 -134 -20 -122 rrcurveto
          -112 -85 -81 -84 -78 vvcurveto
          -50 27 -31 43 125 40 163 179 26 vhcurveto
          76 53 86 55 83 55 rrcurveto
          -283 -68 17 -319 185 hhcurveto
          22 6 20 0 hvcurveto
          -162 2 349 283 70 hvcurveto
          147 103 118 105 105 vvcurveto
          35 -22 26 -36 -111 -100 -173 -204 -56 vhcurveto
          -83 -56 -88 -58 -81 -56 15 110 12 111 25 80 rrcurveto
          22 210 18 191 -65 hhcurveto
          336 -27 rmoveto
          -83 -98 -90 -127 -92 vhcurveto
          169 48 72 134 73 hhcurveto
          23 9 -16 -22 hvcurveto
          -748 -844 rmoveto
          -27 -16 19 36 66 66 69 94 73 hvcurveto
          -145 -26 -29 -118 -62 hhcurveto
          endchar
        </CharString>
        <CharString name="I">
          315 -55 callsubr
          218 -113 -103 callsubr
        </CharString>
        <CharString name="Iacute">
          243 -55 callsubr
          780 -61 callgsubr
          -562 -1136 -103 callsubr
        </CharString>
        <CharString name="Icircumflex">
          243 -55 callsubr
          757 -66 callgsubr
          -515 -991 -103 callsubr
        </CharString>
        <CharString name="Idieresis">
          243 -57 callsubr
          -18 168 -91 91 hstemhm
          hintmask 10100101
          619 -73 callgsubr
          -527 -1082 -56 callgsubr
          hintmask 10011010
          -59 callsubr
          -96 callgsubr
          hintmask 01011010
          168 -46 -245 -86 hhcurveto
          hintmask 11011010
          -61 callsubr
        </CharString>
        <CharString name="Igrave">
          243 -55 callsubr
          561 -62 callsubr
          -343 -1116 -103 callsubr
        </CharString>
        <CharString name="J">
          371 -318 26 -26 205 -19 297 654 -20 hstemhm
          243 48 553 33 hintmask 10111100
          836 819 rmoveto
          -17 -6 -18 0 hvcurveto
          18 13 -16 -22 -57 -78 -29 -99 -29 hvcurveto
          60 21 31 38 51 hhcurveto
          0 -5 17 -16 -65 -41 -51 -80 -29 vhcurveto
          -170 -49 -201 -64 -198 vvcurveto
          -81 46 -65 66 27 1 22 0 vhcurveto
          -54 -38 56 69 178 161 59 153 45 hvcurveto
          -295 -91 32 -601 -344 -310 45 438 230 hhcurveto
          hintmask 01011100
          168 -40 -259 -92 hhcurveto
          hintmask 10111100
          0 7 -19 21 vhcurveto
          126 31 297 -222 -255 -55 -483 363 hhcurveto
          434 -74 655 282 79 hvcurveto
          118 33 101 33 83 vvcurveto
          29 -17 22 -24 vhcurveto
          endchar
        </CharString>
        <CharString name="K">
          431 -138 103 -27 27 279 109 -22 306 -176 176 199 -20 hstemhm
          hintmask 10010100
          618 818 rmoveto
          -17 -7 -18 0 hvcurveto
          55 -22 -145 -25 -160 hvcurveto
          54 20 28 34 46 -4 callsubr
          -56 -37 -44 -65 -28 vhcurveto
          -3 hlineto
          -41 -92 11 -37 -247 -21 -306 142 hhcurveto
          hintmask 01101100
          27 1 22 0 hvcurveto
          -110 5 260 215 25 87 -10 40 hhcurveto
          -13 -35 -10 -40 -10 -43 -113 -2 -24 -121 103 -38 rrcurveto
          -183 -40 -50 -176 -143 -177 38 279 184 hhcurveto
          0 -9 19 -21 vhcurveto
          -174 -65 -325 240 hhcurveto
          191 56 185 190 33 hvcurveto
          8 hlineto
          49 43 7 14 36 hvcurveto
          hintmask 10101100
          -176 53 -65 -296 222 hhcurveto
          24 2 18 0 hvcurveto
          -160 39 292 178 -79 hvcurveto
          117 221 -23 351 183 hhcurveto
          0 1 18 -23 -161 -65 -315 -129 -155 vhcurveto
          -28 44 -39 31 -57 12 7 47 8 43 11 36 rrcurveto
          24 206 18 189 -65 hhcurveto
          -202 -480 rmoveto
          -5 hlineto
          18 118 49 -11 31 -31 20 -42 rlinecurve
          -21 -33 -38 -13 -42 hhcurveto
          -44 123 rmoveto
          -8 -36 -7 -38 -8 -38 -69 30 17 76 75 6 rrcurveto
          endchar
        </CharString>
        <CharString name="L">
          325 -150 31 -31 157 -61 161 -91 -21 87 25 55 26 563 80 -29 29 hstemhm
          325 40 hintmask 1010011010000000
          365 625 rmoveto
          78 -2 -44 71 -97 -270 -53 -612 394 hhcurveto
          10 9 0 1 10 hvcurveto
          -22 -55 -26 -48 -33 -34 rrcurveto
          44 -61 -62 37 -64 -114 -25 -161 204 hhcurveto
          54 45 15 24 38 hvcurveto
          -64 82 86 -71 109 hhcurveto
          hintmask 0100111010000000
          144 -4 157 -71 hhcurveto
          hintmask 1001111010000000
          17 callgsubr
          -78 -76 61 58 -78 hvcurveto
          54 42 38 64 29 75 rrcurveto
          109 295 142 541 -197 hhcurveto
          -184 -28 -385 -255 -93 hvcurveto
          -2 -14 -13 -1 -14 -360 55 563 235 hhcurveto
          83 18 -62 -69 2 hvcurveto
          -22 40 8 19 vvcurveto
          hintmask 1001110110000000
          262 177 rmoveto
          112 -88 -461 -123 -239 hvcurveto
          250 86 1 334 128 hhcurveto
          -508 -832 rmoveto
          -157 5 112 87 hhcurveto
          60 54 -32 -41 55 hvcurveto
          -24 -29 -34 -15 -41 hhcurveto
          endchar
        </CharString>
        <CharString name="M">
          869 -127 28 47 115 -57 57 -42 301 -21 146 158 149 -149 195 18 -20 hstemhm
          hintmask 11001101
          1190 787 rmoveto
          -54 -46 -51 -75 -40 hvcurveto
          -143 46 rlineto
          46 19 20 28 20 hhcurveto
          0 -3 13 -18 -26 -27 -28 -45 -26 vhcurveto
          -19 7 -20 6 -19 6 rrcurveto
          37 29 33 22 43 hhcurveto
          0 0 19 -17 -45 -36 -26 -44 -31 vhcurveto
          hintmask 11001010
          29 -91 -85 23 -57 -58 callgsubr
          21 0 hvcurveto
          -131 17 329 261 hhcurveto
          54 78 -20 -27 87 hvcurveto
          -230 -145 -49 -598 -357 -82 callsubr
          hintmask 10010101
          -90 callgsubr
          398 7 626 222 144 hvcurveto
          20 -6 20 -7 21 -6 rrcurveto
          hintmask 10101101
          -208 -107 -76 -488 140 hhcurveto
          87 55 411 218 112 hvcurveto
          24 -7 22 -6 22 -4 rrcurveto
          hintmask 11001101
          -230 -107 -78 -440 144 hhcurveto
          -28 callsubr
          -97 72 420 221 85 hvcurveto
          -3 17 16 -1 14 -80 callsubr
          -6 -6 0 1 -7 hvcurveto
          66 28 28 45 24 hhcurveto
          0 -3 13 -18 -34 -37 -47 -70 -35 vhcurveto
          -21 4 -22 6 -24 6 rrcurveto
          69 38 45 45 55 hhcurveto
          0 -2 20 -22 vhcurveto
          -150 -145 rmoveto
          -211 -106 -63 -368 -47 hhcurveto
          -51 53 429 195 73 hvcurveto
          48 -16 48 -15 45 -14 rrcurveto
          endchar
        </CharString>
        <CharString name="N">
          749 -3 callsubr
          hstemhm
          hintmask 11010100
          858 818 -55 callgsubr
          hintmask 10101000
          -32 callgsubr
          hintmask 11011000
          -37 callsubr
          hintmask 11010010
          -46 callsubr
          hintmask 11010100
          -16 callsubr
          endchar
        </CharString>
        <CharString name="Ntilde">
          699 -3 callsubr
          58 26 callsubr
          hintmask 1101010110000000
          1021 982 -94 callsubr
          -163 -164 -55 callgsubr
          13 callgsubr
          -32 callgsubr
          hintmask 1101100110000000
          -37 callsubr
          hintmask 1101001110000000
          -46 callsubr
          hintmask 1101010110000000
          -16 callsubr
          endchar
        </CharString>
        <CharString name="O">
          331 -26 callgsubr
          481 818 -93 callsubr
        </CharString>
        <CharString name="OE">
          781 -321 225 -26 26 -26 93 -24 244 110 -31 callgsubr
          94 27 -27 145 -21 142 hstemhm
          491 210 -42 42 hintmask 1001101010110000
          758 939 rmoveto
          -195 -71 -273 -86 190 hvcurveto
          -7 -42 4 -41 16 -33 -45 -23 -38 -32 -31 -37 rrcurveto
          171 43 -20 157 -124 -81 callsubr
          hhcurveto
          hintmask 0010101010110000
          -76 callgsubr
          hintmask 1001101001010000
          -12 callsubr
          -48 callsubr
          100 93 88 117 68 hvcurveto
          -9 -122 53 -112 126 -31 rrcurveto
          -70 callgsubr
          hintmask 0101010110101000
          -99 callsubr
          hintmask 1001101010110000
          -51 callsubr
          hintmask 1001100110110000
          -77 callsubr
          -166 67 237 182 hhcurveto
          -100 callgsubr
          hintmask 1001101010110000
          -101 -317 -74 callgsubr
        </CharString>
        <CharString name="Oacute">
          -26 callgsubr
          644 -61 callgsubr
          -163 -205 -93 callsubr
        </CharString>
        <CharString name="Ocircumflex">
          -26 callgsubr
          621 -66 callgsubr
          -116 -60 -93 callsubr
        </CharString>
        <CharString name="Odieresis">
          -53 -33 callgsubr
          -21 172 -91 91 hstemhm
          hintmask 10101000
          435 -73 callgsubr
          -80 -151 -51 callgsubr
          hintmask 10101000
          -12 callsubr
          endchar
        </CharString>
        <CharString name="Ograve">
          -26 callgsubr
          424 -62 callsubr
          57 -185 -93 callsubr
        </CharString>
        <CharString name="Oslash">
          531 940 rmoveto
          -27 -84 -206 -634 -80 -250 rrcurveto
          23 -302 186 802 348 hhcurveto
          0 0 21 -19 -416 -193 -842 -28 388 vhcurveto
          -21 -69 -13 -43 26 -8 5 17 rlinecurve
          6 21 12 37 15 45 277 16 230 678 -258 55 68 201 rcurveline
          17 51 -37 11 -6 -20 rrcurveto
          -55 -282 rmoveto
          174 -42 -156 -616 -246 -27 58 176 99 296 71 213 rrcurveto
          endchar
        </CharString>
        <CharString name="Otilde">
          -53 -33 callgsubr
          -21 152 -74 26 callsubr
          hintmask 10101100
          498 949 -94 callsubr
          -17 -131 -51 callgsubr
          hintmask 10101100
          -12 callsubr
          endchar
        </CharString>
        <CharString name="P">
          325 -104 27 279 58 -23 196 -164 26 406 115 -25 25 hstemhm
          hintmask 10101000
          191 237 rmoveto
          hintmask 11010100
          22 9 23 0 hvcurveto
          -198 17 531 424 hhcurveto
          322 -101 -487 -9 -292 hvcurveto
          hintmask 10101000
          203 26 1 203 100 -4 callsubr
          -115 -22 -212 -204 -34 vhcurveto
          26 -92 21 90 45 hhcurveto
          0 -2 15 -16 -53 -28 -125 -32 120 vhcurveto
          -183 -32 -46 -170 -136 hhcurveto
          hintmask 11011000
          -177 39 279 182 2 callsubr
          -173 -65 -325 241 hhcurveto
          183 53 182 191 27 hvcurveto
          3 359 133 544 -418 hhcurveto
          hintmask 10101000
          -455 -55 -579 236 hhcurveto
          endchar
        </CharString>
        <CharString name="Q">
          331 -244 40 -40 170 -170 188 -42 69 -24 -33 callgsubr
          hstemhm
          hintmask 10001010
          481 818 rmoveto
          -48 callsubr
          hintmask 10001100
          -87 callgsubr
          hhcurveto
          hintmask 10010010
          -76 callgsubr
          -12 callsubr
          hintmask 01001100
          -442 -892 rmoveto
          hintmask 10010100
          -24 -5 -24 0 hvcurveto
          117 103 -146 165 hhcurveto
          hintmask 00101100
          191 -2 188 -86 hhcurveto
          -20 -5 -19 0 hvcurveto
          hintmask 10010100
          47 1 -129 -151 hhcurveto
          hintmask 01001100
          -140 -104 130 -87 hhcurveto
          endchar
        </CharString>
        <CharString name="R">
          373 -138 103 -27 27 279 71 -23 192 199 133 -25 25 hstemhm
          hintmask 01011000
          486 700 rmoveto
          -75 -31 -95 -121 -23 hvcurveto
          -113 -4 -20 -120 106 -37 rrcurveto
          -181 -31 -42 -177 -145 hhcurveto
          hintmask 01101000
          -10 callsubr
          194 48 187 187 23 hvcurveto
          9 hlineto
          42 39 7 13 36 hvcurveto
          hintmask 10010100
          -177 43 -79 -293 221 hhcurveto
          24 2 18 0 hvcurveto
          -159 52 289 178 -68 hvcurveto
          115 233 47 354 -354 -436 -52 -524 209 hhcurveto
          hintmask 10100100
          21 10 23 0 hvcurveto
          -178 41 476 385 hhcurveto
          264 -31 -299 -112 -173 hvcurveto
          -27 50 -39 38 -64 12 rrcurveto
          hintmask 10101000
          115 13 19 88 63 -4 callsubr
          vhcurveto
          -77 -243 rmoveto
          53 -12 30 -35 18 -48 rrcurveto
          -15 -33 -36 -9 -40 hhcurveto
          -4 hlineto
          -63 11 rmoveto
          -73 29 18 76 74 7 -7 -36 -6 -38 -6 -38 rrcurveto
          endchar
        </CharString>
        <CharString name="S">
          364 -1 callgsubr
          25 callgsubr
          hintmask 0110111011000000
          294 455 -58 callsubr
          hintmask 1000111101000000
          -41 callgsubr
          hintmask 1000111011000000
          -25 callsubr
          hintmask 0101111101000000
          -57 callgsubr
        </CharString>
        <CharString name="Scaron">
          313 -1 callgsubr
          198 -20 25 callgsubr
          hintmask 0110111101100000
          603 1013 -59 callgsubr
          -333 -558 -58 callsubr
          hintmask 1000111110100000
          -41 callgsubr
          hintmask 1000111101100000
          -25 callsubr
          hintmask 0101111110100000
          -57 callgsubr
        </CharString>
        <CharString name="T">
          198 -75 27 309 92 326 55 -30 30 -30 87 -87 120 hstemhm
          hintmask 11100000
          529 696 rmoveto
          -223 138 -744 -295 -7 callgsubr
          386 -201 754 198 -4 callsubr
          vhcurveto
          hintmask 11000100
          211 128 rmoveto
          -22 -6 -24 0 hvcurveto
          hintmask 11010000
          15 11 -66 -118 hhcurveto
          hintmask 11001000
          -117 -64 57 -14 callgsubr
          62 -66 154 hhcurveto
          hintmask 11000100
          132 9 120 -56 hhcurveto
          endchar
        </CharString>
        <CharString name="Thorn">
          140 2 -21 805 29 hstem
          42 467 rmoveto
          -116 -54 -8 -106 127 -14 -24 -132 -18 -115 1 -30 rrcurveto
          -18 4 -17 19 31 42 148 169 58 vhcurveto
          58 402 156 459 -237 hhcurveto
          -180 -101 -309 -185 -59 hvcurveto
          -12 -2 -13 -1 -12 -1 26 130 42 194 14 72 rrcurveto
          12 1 -7 7 -10 hhcurveto
          -17 -21 -23 -55 -12 hvcurveto
          -21 -91 -25 -128 -22 -118 -96 11 10 73 88 44 rrcurveto
          421 341 rmoveto
          132 -133 -391 -69 -305 hvcurveto
          219 76 99 241 131 hhcurveto
          -343 -491 rmoveto
          -66 -21 -14 -45 -11 hhcurveto
          -3 -2 2 6 hvcurveto
          -1 4 7 40 12 56 rrcurveto
          endchar
        </CharString>
        <CharString name="U">
          308 -48 callgsubr
          580 493 -104 callsubr
        </CharString>
        <CharString name="Uacute">
          259 -48 callgsubr
          569 789 -101 callsubr
          11 -296 -104 callsubr
        </CharString>
        <CharString name="Ucircumflex">
          259 -48 callgsubr
          583 691 -98 callgsubr
          21 -198 -104 callsubr
        </CharString>
        <CharString name="Udieresis">
          259 -70 -21 69 25 458 32 161 91 -91 163 hstemhm
          139 64 88 51 89 61 hintmask 11110111
          455 745 -102 callgsubr
          -1 -252 rmoveto
          -89 -61 -194 -165 1 hvcurveto
          -74 -57 -62 -57 -50 hhcurveto
          -30 callgsubr
          139 11 callsubr
          hintmask 11101111
          -104 callgsubr
        </CharString>
        <CharString name="Ugrave">
          259 -48 callgsubr
          392 779 -97 callsubr
          188 -286 -104 callsubr
        </CharString>
        <CharString name="V">
          313 -22 25 665 32 117 -20 hstem
          174 64 52 51 vstem
          587 700 rmoveto
          -131 -54 -369 -110 106 hvcurveto
          -121 -54 -73 -97 -81 hhcurveto
          -50 -12 -21 callgsubr
          103 -49 callsubr
          -116 27 callgsubr
          88 81 100 125 59 vhcurveto
          -8 15 16 -5 19 -18 callsubr
          -26 -20 11 18 -16 hvcurveto
          207 88 32 254 -78 hhcurveto
          -5 -32 rmoveto
          47 -29 -215 -185 -73 hvcurveto
          123 -58 53 277 60 hhcurveto
          endchar
        </CharString>
        <CharString name="W">
          558 -22 25 -6 27 525 32 84 32 120 -20 hstemhm
          157 64 69 51 -51 206 hintmask 01111110
          564 -3 rmoveto
          83 73 97 123 51 hvcurveto
          -17 16 19 -10 23 -18 callsubr
          -29 -22 22 34 -16 hvcurveto
          197 70 17 234 -74 hhcurveto
          -102 -26 -328 -129 78 hvcurveto
          -119 -45 -62 -97 -71 hhcurveto
          -46 -23 59 78 -7 hvcurveto
          178 104 52 242 -80 hhcurveto
          -92 -74 -284 -172 37 hvcurveto
          hintmask 10111110
          -71 -49 -56 -51 -58 hhcurveto
          -50 -12 -21 callgsubr
          120 -49 callsubr
          -133 27 callgsubr
          60 59 47 68 52 vhcurveto
          hintmask 01111101
          -57 19 34 -39 56 hhcurveto
          234 668 rmoveto
          45 -15 -188 -172 -53 hvcurveto
          134 -38 20 226 41 hhcurveto
          -228 -116 rmoveto
          46 -41 -184 -154 -79 hvcurveto
          151 -2 41 187 35 hhcurveto
          endchar
        </CharString>
        <CharString name="X">
          518 -46 25 -14 -21 142 272 473 -20 hstemhm
          -7 33 819 38 hintmask 01111100
          817 831 rmoveto
          -127 -101 -140 -166 -93 hvcurveto
          159 17 -21 133 -171 -235 -86 -421 -63 callgsubr
          10 -16 3 -4 -8 rrcurveto
          -49 -23 -39 -36 -55 -189 78 373 205 hhcurveto
          178 -47 -198 -203 -44 hvcurveto
          -209 -112 -206 -113 -138 vvcurveto
          -51 35 -34 58 109 93 131 161 89 vhcurveto
          hintmask 10111100
          -155 -22 17 -127 174 220 113 404 -181 -163 -37 -272 84 hhcurveto
          14 4 15 0 hvcurveto
          -46 25 234 127 115 -83 -356 -193 hhcurveto
          -158 54 212 210 37 hvcurveto
          206 112 199 114 134 vvcurveto
          43 -25 27 -41 vhcurveto
          -419 -485 rmoveto
          -189 -97 -99 -187 -116 hhcurveto
          -37 -23 22 35 121 180 105 195 106 hvcurveto
          402 445 rmoveto
          27 15 -18 -30 -120 -173 -103 -189 -102 hvcurveto
          4 vlineto
          193 101 101 176 118 hhcurveto
          endchar
        </CharString>
        <CharString name="Y">
          366 -15 callgsubr
          348 24 -91 callgsubr
        </CharString>
        <CharString name="Yacute">
          238 -15 callgsubr
          667 785 -101 callsubr
          -319 -761 -91 callgsubr
        </CharString>
        <CharString name="Ydieresis">
          238 -19 callsubr
          176 91 -91 148 hstemhm
          225 64 79 51 hintmask 1010110110000000
          526 760 -102 callgsubr
          -304 -736 rmoveto
          -30 callgsubr
          130 174 178 vvcurveto
          hintmask 1001101110000000
          -103 callgsubr
          -143 -169 -167 vvcurveto
          -29 callgsubr
          hintmask 1010110110000000
          -35 callgsubr
          hintmask 0100110110000000
          0 6 -52 callsubr
          hhcurveto
          hintmask 1010110110000000
          -78 callgsubr
        </CharString>
        <CharString name="Z">
          470 -6 callsubr
          14 -20 hstemhm
          hintmask 11001101
          502 -45 -53 callsubr
          hintmask 11001110
          -49 callgsubr
          hintmask 10100110
          -6 callgsubr
          hintmask 10011110
          -70 callsubr
        </CharString>
        <CharString name="Zcaron">
          420 -6 callsubr
          196 -20 hstemhm
          hintmask 11001111
          487 1013 -59 callgsubr
          -9 -1058 -53 callsubr
          -49 callgsubr
          hintmask 10100111
          -6 callgsubr
          hintmask 10011111
          -70 callsubr
        </CharString>
        <CharString name="_0127">
          -405 endchar
        </CharString>
        <CharString name="a">
          -22 callsubr
          242 335 -99 callgsubr
        </CharString>
        <CharString name="aacute">
          -22 callsubr
          292 -83 callsubr
          -50 -318 -99 callgsubr
        </CharString>
        <CharString name="acircumflex">
          -22 callsubr
          299 -78 callsubr
          -33 -173 -99 callgsubr
        </CharString>
        <CharString name="acute">
          -17 267 -83 callsubr
          endchar
        </CharString>
        <CharString name="adieresis">
          -34 callgsubr
          83 91 hstemhm
          hintmask 10110000
          173 -89 callsubr
          -57 -264 -95 callgsubr
          hintmask 01110000
          -97 callgsubr
        </CharString>
        <CharString name="ae">
          167 -1 26 -26 185 -165 -21 172 255 -27 27 hstemhm
          hintmask 00110000
          337 16 callgsubr
          hintmask 10001000
          -67 callgsubr
          hintmask 01001000
          -17 callgsubr
          hintmask 10010000
          -54 callgsubr
          hhcurveto
          -79 -57 -80 -84 -41 hvcurveto
          -82 -40 -91 -151 -47 hhcurveto
          hintmask 10001000
          -96 callsubr
          46 66 93 89 52 hvcurveto
          hintmask 00110000
          -96 -9 40 -87 115 hhcurveto
          endchar
        </CharString>
        <CharString name="agrave">
          -22 callsubr
          142 -75 callgsubr
          100 -298 -99 callgsubr
        </CharString>
        <CharString name="ampersand">
          368 -44 -21 73 -21 335 278 hstem
          -35 54 300 31 vstem
          646 551 rmoveto
          -18 -6 -17 0 hvcurveto
          90 -14 -282 -255 hhcurveto
          -14 -12 1 2 -11 hvcurveto
          52 -18 38 -30 -56 -9 -83 -26 91 vhcurveto
          -5 -50 -20 -64 -42 -50 -61 72 -46 98 -23 89 rrcurveto
          82 58 81 49 76 vvcurveto
          49 -29 37 -66 -152 -25 -132 -147 46 vhcurveto
          -82 -58 -77 -68 -100 vvcurveto
          -70 49 -62 114 77 60 28 39 44 vhcurveto
          -57 63 73 -38 73 hhcurveto
          96 38 62 35 hvcurveto
          13 -17 -2 -9 vvcurveto
          -33 -32 -42 -84 -69 -64 39 57 -54 vhcurveto
          45 53 23 67 5 56 rrcurveto
          -2 11 13 0 14 291 31 322 -119 hhcurveto
          -515 -564 rmoveto
          -84 -28 48 56 89 52 61 63 51 hvcurveto
          33 -88 56 -90 69 -68 rrcurveto
          -35 -39 -53 -24 -69 hhcurveto
          136 589 rmoveto
          35 17 -22 -32 -63 -65 -48 -74 -51 hvcurveto
          118 -23 22 98 88 hhcurveto
          91 -254 rmoveto
          16 10 -26 -36 1 hvcurveto
          19 -55 0 43 28 hhcurveto
          endchar
        </CharString>
        <CharString name="aring">
          -34 callgsubr
          -27 143 -21 132 hstemhm
          159 133 hintmask 10101100
          224 652 1 callgsubr
          hintmask 10010100
          -7 callsubr
          18 -206 rmoveto
          -25 -9 -127 -282 -74 -85 callsubr
          hintmask 10101100
          -72 callgsubr
          55 67 99 91 49 14 callsubr
          hintmask 01101100
          -97 callgsubr
        </CharString>
        <CharString name="asciicircum">
          8 408 -21 153 -20 hstem
          414 387 rmoveto
          -153 153 rlineto
          -45 hlineto
          -214 -153 rlineto
          32 hlineto
          213 127 136 -127 rlineto
          endchar
        </CharString>
        <CharString name="asciitilde">
          91 370 32 8 41 hstem
          374 410 rmoveto
          55 41 -37 0 hvcurveto
          26 hlineto
          0 -58 78 -79 vhcurveto
          -71 -61 -49 -59 hhcurveto
          -38 -17 23 0 hvcurveto
          -26 hlineto
          0 31 -55 58 64 62 43 -3 72 vhcurveto
          endchar
        </CharString>
        <CharString name="asterisk">
          250 798 -20 hstem
          281 56 vstem
          172 692 rmoveto
          -14 4 -16 -8 -5 -15 -5 -15 9 -15 14 -5 rrcurveto
          -9 29 67 -18 35 hhcurveto
          -29 -21 -44 -53 -18 -24 -9 -12 3 -18 12 -9 12 -9 18 2 9 13 18 24 40 59 11 33 12 -32 42 -59 19 -23 10 -12 17 -2 12 10 12 10 2 17 -9 13 rrcurveto
          -19 23 -46 51 -29 19 36 2 64 20 27 10 14 5 8 16 -5 15 -5 14 -17 8 -14 -5 -27 -10 -60 -25 -30 -21 rrcurveto
          10 35 4 67 28 vvcurveto
          16 -13 12 -15 -16 -12 -12 -16 -30 3 -71 11 -33 vhcurveto
          -29 20 -66 26 -28 10 rrcurveto
          endchar
        </CharString>
        <CharString name="at">
          388 -64 179 -17 304 -25 25 -25 160 -3 callgsubr
          444 44 rmoveto
          0 -24 -86 -127 vhcurveto
          -289 42 558 359 305 -87 -401 -128 hhcurveto
          -54 24 21 callsubr
          -16 -5 -18 -4 -2 hvcurveto
          -16 -8 -15 callsubr
          hintmask 01000000
          29 callgsubr
          40 48 73 65 36 hvcurveto
          -72 -11 10 -68 75 hhcurveto
          hintmask 10010000
          158 108 441 -343 -407 -91 -601 367 hhcurveto
          152 23 107 0 hvcurveto
          endchar
        </CharString>
        <CharString name="atilde">
          -34 callgsubr
          80 26 callsubr
          hintmask 10111000
          166 -77 callgsubr
          76 -244 -95 callgsubr
          hintmask 01111000
          -97 callgsubr
        </CharString>
        <CharString name="b">
          -34 9 callsubr
          372 -20 hstemhm
          -20 53 -53 278 hintmask 11010100
          79 hmoveto
          90 71 169 129 16 hvcurveto
          -1 7 9 -1 9 -75 callsubr
          34 callgsubr
          3 -9 vhcurveto
          hintmask 10111000
          65 4 -13 50 -35 hhcurveto
          -45 -4 -103 -34 68 hvcurveto
          -115 -17 -59 -164 -76 hhcurveto
          -36 -12 37 50 56 21 130 30 131 hvcurveto
          45 107 157 339 -118 hhcurveto
          -119 -131 -517 -161 -74 19 -63 80 hvcurveto
          153 792 rmoveto
          62 -115 -273 -58 -88 hvcurveto
          169 41 56 162 44 hhcurveto
          endchar
        </CharString>
        <CharString name="backslash">
          52 137 669 rmoveto
          20 -4 -12 6 -5 hhcurveto
          -21 6 -11 -35 15 -60 24 -106 118 -473 30 -141 6 -29 31 3 -17 70 -27 117 -104 515 -23 107 rrcurveto
          endchar
        </CharString>
        <CharString name="bar">
          -1 29 callsubr
          53 hintmask 10100000
          212 671 rmoveto
          18 callsubr
          hintmask 11000000
          -4 -108 -10 -480 -2 -152 rrcurveto
          -29 29 -5 1 72 vhcurveto
          hintmask 10100000
          5 120 29 524 5 110 rrcurveto
          endchar
        </CharString>
        <CharString name="braceleft">
          -2 -79 -21 458 27 431 -20 hstem
          60 385 rmoveto
          -11 3 -27 9 104 -195 -458 193 hhcurveto
          16 4 17 0 hvcurveto
          -182 204 370 82 -86 hvcurveto
          68 153 -137 362 220 -4 callsubr
          vhcurveto
          -226 89 -431 -138 hhcurveto
          endchar
        </CharString>
        <CharString name="braceright">
          -49 -79 -21 431 27 458 -20 hstem
          264 331 rmoveto
          11 -2 27 -9 -104 195 458 -194 hhcurveto
          -16 -4 -17 0 hvcurveto
          182 -205 -371 -82 87 hvcurveto
          -69 -153 137 -360 -219 hhcurveto
          0 4 -17 16 vhcurveto
          225 -89 431 138 hhcurveto
          endchar
        </CharString>
        <CharString name="bracketleft">
          -103 -111 25 846 25 hstem
          31 -86 rmoveto
          19 117 104 630 16 99 rrcurveto
          0 13 0 34 69 9 25 0 vhcurveto
          -20 -72 0 -81 hhcurveto
          -15 -100 -105 -685 -22 -111 rrcurveto
          81 72 0 20 hhcurveto
          0 -11 25 -69 -34 -8 0 0 vhcurveto
          endchar
        </CharString>
        <CharString name="bracketright">
          -77 -111 25 846 25 hstem
          244 760 rmoveto
          -19 -117 -104 -630 -16 -99 rrcurveto
          0 -13 0 -34 -69 -9 -25 0 vhcurveto
          20 72 0 81 hhcurveto
          15 100 105 685 22 111 rrcurveto
          -81 -72 0 -20 hhcurveto
          0 11 -25 69 34 8 0 0 vhcurveto
          endchar
        </CharString>
        <CharString name="brokenbar">
          8 29 callsubr
          36 -36 53 hintmask 10100000
          195 342 rmoveto
          hintmask 10010000
          8 144 7 135 2 50 rrcurveto
          18 callsubr
          -2 -45 -2 -108 -3 -124 rrcurveto
          hintmask 10100000
          -2 -96 rmoveto
          hintmask 11000000
          -3 -147 -3 -147 -1 -73 rrcurveto
          -29 29 -5 1 72 vhcurveto
          2 53 8 134 7 142 rrcurveto
          endchar
        </CharString>
        <CharString name="bullet">
          -6 257 146 hstem
          94 146 vstem
          240 330 rmoveto
          41 -32 32 -41 -40 -33 -32 -41 -40 33 -33 40 41 32 33 40 vhcurveto
          endchar
        </CharString>
        <CharString name="c">
          -66 -2 31 callgsubr
          hintmask 10100000
          3 callgsubr
          hintmask 11000000
          24 callsubr
          -187 -112 -427 244 hhcurveto
          -47 callsubr
          -43 callgsubr
          endchar
        </CharString>
        <CharString name="ccedilla">
          -66 -178 60 59 84 -27 31 callgsubr
          hintmask 11001000
          3 callgsubr
          hintmask 11010000
          24 callsubr
          hhcurveto
          -181 -110 -400 -25 213 hvcurveto
          -30 -19 -25 -45 21 -20 callgsubr
          hintmask 11110000
          -13 callgsubr
          29 52 rlineto
          132 1 130 301 0 vvcurveto
          -27 hlineto
          -43 callgsubr
          endchar
        </CharString>
        <CharString name="cedilla">
          -66 -176 137 65 -20 hstem
          -2 -116 rmoveto
          -27 -13 -60 75 -13 callgsubr
          44 78 rlineto
          -21 hlineto
          0 -71 -99 31 vhcurveto
          -38 callgsubr
          endchar
        </CharString>
        <CharString name="cent">
          -66 164 523 rmoveto
          -15 -99 -184 -19 -94 -388 216 -18 rlinecurve
          -9 -69 25 callsubr
          rlinecurve
          3 26 6 36 6 40 rrcurveto
          83 6 52 110 -16 callgsubr
          -44 -79 -60 -9 vhcurveto
          59 371 rlineto
          -9 35 -12 -57 -10 hhcurveto
          0 2 -11 10 39 10 92 12 -70 vhcurveto
          8 57 7 53 -26 10 -3 -21 rlinecurve
          -19 -128 rmoveto
          -17 -113 -22 -151 -15 -106 -133 18 82 317 105 35 rrcurveto
          endchar
        </CharString>
        <CharString name="circumflex">
          -107 529 -21 hstem
          251 -78 callsubr
          endchar
        </CharString>
        <CharString name="colon">
          -112 20 callsubr
          267 91 -3 callgsubr
          88 72 rmoveto
          hintmask 01100000
          32 callsubr
          hintmask 10100000
          -88 callgsubr
          18 -43 callsubr
          41 280 rmoveto
          32 callsubr
          -88 callgsubr
          18 -43 callsubr
          endchar
        </CharString>
        <CharString name="comma">
          -190 -93 165 hstem
          99 72 rmoveto
          -71 callgsubr
        </CharString>
        <CharString name="copyright">
          368 -41 145 -104 -21 311 113 -20 138 hstemhm
          hintmask 10010000
          347 104 rmoveto
          -120 81 279 81 40 -37 -85 -11 hhcurveto
          hintmask 10100000
          0 1 -8 8 vhcurveto
          50 20 113 -72 -140 -84 -320 183 hhcurveto
          54 42 67 0 hvcurveto
          -19 6 rlineto
          0 -34 -52 -43 vhcurveto
          -249 136 rmoveto
          144 14 129 117 144 hhcurveto
          144 105 -117 -144 -14 hvcurveto
          hintmask 01100000
          -144 -16 -129 -117 -144 hhcurveto
          -144 -105 117 144 16 hvcurveto
          -20 hmoveto
          hintmask 10010000
          -155 -17 113 -126 155 hhcurveto
          155 139 126 155 17 hvcurveto
          155 15 -113 126 -155 hhcurveto
          -155 -139 -126 -155 -15 hvcurveto
          endchar
        </CharString>
        <CharString name="currency">
          171 420 385 rmoveto
          14 14 -17 16 -13 -13 -59 -59 rcurveline
          12 -14 -18 8 -24 hhcurveto
          -36 -28 -14 -17 -20 hvcurveto
          -67 68 -14 14 -16 -17 13 -13 rlinecurve
          68 -68 -6 -8 23 0 14 12 rlinecurve
          14 16 21 9 21 96 -51 -282 -108 hhcurveto
          -82 28 203 19 68 hvcurveto
          7 2 -2 19 -12 -3 -79 -19 -48 -112 26 -71 -53 -53 rcurveline
          -13 -13 17 -16 12 13 48 48 rcurveline
          -23 16 27 -14 40 hhcurveto
          41 35 23 34 28 hvcurveto
          64 -64 13 -13 16 17 -13 12 rlinecurve
          -66 66 43 65 15 93 -31 51 rlinecurve
          endchar
        </CharString>
        <CharString name="d">
          64 -1 25 -6 -21 401 27 263 -20 hstemhm
          hintmask 01110000
          277 -3 rmoveto
          83 136 303 -50 callsubr
          hintmask 10110000
          0 -128 -276 -61 -82 157 528 116 30 vhcurveto
          12 3 -7 8 -10 hhcurveto
          -20 -23 -25 -54 -15 hvcurveto
          -16 -58 -15 -53 -25 -104 rrcurveto
          -88 -21 -130 -278 -73 -96 callsubr
          58 71 111 95 51 hvcurveto
          8 hlineto
          -7 -40 -4 -36 -26 vvcurveto
          hintmask 01110000
          -63 18 -43 54 vhcurveto
          endchar
        </CharString>
        <CharString name="dagger">
          103 392 31 hstem
          298 665 rmoveto
          -13 -39 -27 -96 -30 -110 rrcurveto
          2 -43 -41 1 -30 -46 callgsubr
          145 hlineto
          -50 -179 -55 -207 -21 -68 -22 -69 31 -6 9 31 25 90 73 231 57 178 rrcurveto
          48 44 1 33 -28 callgsubr
          -38 -55 2 2 -55 hvcurveto
          57 180 18 60 -8 36 -21 -4 rlinecurve
          -6 -1 -12 -5 -6 -19 rrcurveto
          endchar
        </CharString>
        <CharString name="daggerdbl">
          226 206 183 hstem
          48 206 rmoveto
          177 hlineto
          -32 -118 -30 -105 -13 -45 -22 -69 31 -6 9 31 17 61 38 123 41 129 rrcurveto
          74 74 1 54 -28 callgsubr
          -68 -81 2 2 -77 hvcurveto
          44 136 rlineto
          1 64 62 0 47 -28 callgsubr
          -60 -70 1 2 -68 hvcurveto
          30 92 25 78 11 36 18 60 -8 36 -21 -4 -6 -1 -12 -5 -6 -19 -14 -43 -30 -107 -34 -121 rrcurveto
          2 -64 -59 2 -43 -46 callgsubr
          49 74 0 1 75 hvcurveto
          -36 -134 rlineto
          1 -56 -52 2 -38 -25 callgsubr
        </CharString>
        <CharString name="degree">
          -56 420 26 109 25 hstem
          75 25 109 27 vstem
          154 580 rmoveto
          -44 -35 -35 -45 -44 35 -36 44 48 34 36 44 45 -34 35 -48 hvcurveto
          -134 vmoveto
          -30 -24 25 29 31 24 24 30 30 25 -24 -31 -29 -25 -25 -30 hvcurveto
          endchar
        </CharString>
        <CharString name="dieresis">
          -102 508 91 hstem
          106 -89 callsubr
          endchar
        </CharString>
        <CharString name="divide">
          242 147 91 63 29 69 91 hstem
          74 299 rmoveto
          102 195 -32 callsubr
          -175 9 -99 -46 callgsubr
          196 -61 rmoveto
          32 callsubr
          -88 callgsubr
          18 -43 callsubr
          52 252 rmoveto
          32 callsubr
          -88 callgsubr
          18 -43 callsubr
          endchar
        </CharString>
        <CharString name="dollar">
          64 -15 60 51 58 136 62 -44 61 hintmask 11100000
          251 689 rmoveto
          -14 -90 rlineto
          -90 -6 -51 -60 -72 vvcurveto
          -77 48 -46 48 -45 vhcurveto
          -44 -306 rlineto
          -84 1 -19 46 57 41 -60 -3 -34 vvcurveto
          -69 49 -61 110 -2 vhcurveto
          -4 -33 25 callsubr
          rlinecurve
          10 68 rlineto
          110 9 74 81 99 vvcurveto
          89 -67 55 -56 54 vhcurveto
          36 223 rlineto
          hintmask 11010000
          32 -7 11 -23 -34 -26 61 0 26 vvcurveto
          47 -37 37 -63 5 vhcurveto
          8 48 6 53 -29 10 -3 -21 rlinecurve
          hintmask 11100000
          39 -556 rmoveto
          -68 -41 -67 -78 -10 vhcurveto
          12 76 17 103 16 104 rrcurveto
          40 -38 34 -41 -59 vvcurveto
          -136 348 rmoveto
          52 31 38 49 4 vhcurveto
          -9 -56 -9 -70 -11 -73 rrcurveto
          -29 31 -22 33 41 vvcurveto
          endchar
        </CharString>
        <CharString name="dotaccent">
          -124 509 91 hstem
          155 600 rmoveto
          12 callgsubr
          -100 callsubr
          endchar
        </CharString>
        <CharString name="e">
          -27 callsubr
          110 -2 -90 callsubr
        </CharString>
        <CharString name="eacute">
          -27 callsubr
          244 -83 callsubr
          -134 -655 -90 callsubr
        </CharString>
        <CharString name="ecircumflex">
          -27 callsubr
          230 -78 callsubr
          -96 -510 -90 callsubr
        </CharString>
        <CharString name="edieresis">
          -23 callgsubr
          83 91 hstemhm
          hintmask 10110000
          114 -89 callsubr
          -130 -601 -76 callsubr
          hintmask 01110000
          -17 callgsubr
          hintmask 11110000
          -64 callgsubr
        </CharString>
        <CharString name="egrave">
          -27 callsubr
          64 -75 callgsubr
          46 -635 -90 callsubr
        </CharString>
        <CharString name="eight">
          54 -16 -21 45 -21 613 -20 hstemhm
          -15 49 62 58 136 62 -32 49 hintmask 11111100
          255 600 rmoveto
          -101 -58 -62 -77 -60 30 -42 36 -37 hvcurveto
          -87 -58 -90 -62 -107 vvcurveto
          -70 50 -62 113 121 83 85 105 83 -58 53 -53 50 vhcurveto
          hintmask 11111010
          69 45 59 47 79 vvcurveto
          51 -43 39 -71 vhcurveto
          hintmask 11111100
          35 -467 rmoveto
          -74 -48 -72 -91 -86 -31 48 56 104 72 57 77 50 vhcurveto
          51 -48 56 -45 -76 vvcurveto
          -47 443 rmoveto
          hintmask 11111010
          49 28 -27 -39 -63 -45 -44 -56 -42 hvcurveto
          -36 36 -29 37 47 vvcurveto
          55 35 40 54 vhcurveto
          endchar
        </CharString>
        <CharString name="ellipsis">
          222 20 callsubr
          hstemhm
          hintmask 10000000
          100 72 rmoveto
          hintmask 01000000
          12 callgsubr
          hintmask 10000000
          -100 callsubr
          209 hmoveto
          hintmask 01000000
          12 callgsubr
          hintmask 10000000
          -100 callsubr
          209 hmoveto
          hintmask 01000000
          12 callgsubr
          hintmask 10000000
          -100 callsubr
          endchar
        </CharString>
        <CharString name="emdash">
          450 6 callsubr
          333 -32 callsubr
          -313 -8 callgsubr
        </CharString>
        <CharString name="endash">
          303 6 callsubr
          190 -32 callsubr
          -170 -8 callgsubr
        </CharString>
        <CharString name="equal">
          319 208 29 -10 -21 163 29 hstemhm
          hintmask 01100000
          114 367 rmoveto
          4 callsubr
          -46 callgsubr
          -23 -161 rmoveto
          hintmask 10100000
          4 callsubr
          hhcurveto
          hintmask 01100000
          -25 callgsubr
        </CharString>
        <CharString name="eth">
          94 -8 -21 43 -21 354 27 226 -20 hstem
          370 584 rmoveto
          -22 -12 -26 -16 -24 -14 rrcurveto
          36 -30 -41 22 -51 hhcurveto
          7 -26 rlineto
          36 27 -20 -32 18 hvcurveto
          -13 -8 -10 -6 0 vvcurveto
          -41 -23 6 -17 15 9 rrcurveto
          0 24 12 28 16 vhcurveto
          -154 67 -84 -358 -150 -150 58 354 132 hhcurveto
          76 11 -101 -80 -26 hvcurveto
          -7 -18 24 7 6 18 rrcurveto
          90 29 -18 111 -103 -201 -50 -403 211 hhcurveto
          246 78 388 166 -112 hvcurveto
          37 22 47 26 -6 22 -18 -11 rlinecurve
          endchar
        </CharString>
        <CharString name="exclam">
          -106 20 callsubr
          812 -20 -3 callgsubr
          219 785 rmoveto
          -15 -100 -50 -356 -16 -109 rrcurveto
          -41 -6 9 -26 17 -31 callsubr
          23 128 59 315 18 98 rrcurveto
          56 10 -24 -40 callsubr
          -3 hvcurveto
          -79 -713 rmoveto
          hintmask 01100000
          12 callgsubr
          hintmask 10100000
          -100 callsubr
          endchar
        </CharString>
        <CharString name="exclamdown">
          54 -374 25 -25 301 408 91 hstemhm
          -130 66 257 39 hintmask 01111000
          257 426 rmoveto
          32 callsubr
          -88 callgsubr
          18 -43 callsubr
          -64 -185 rmoveto
          -190 -323 -86 -217 vvcurveto
          -74 45 -48 93 vhcurveto
          219 53 301 -150 hhcurveto
          -22 0 -14 0 hvcurveto
          hintmask 10111000
          95 -33 -262 -147 hhcurveto
          -60 -27 35 56 hvcurveto
          224 296 87 188 18 -39 -2 -16 vvcurveto
          endchar
        </CharString>
        <CharString name="f">
          -123 -400 27 542 257 389 -20 hstem
          -34 275 rmoveto
          -7 0 -19 7 hhcurveto
          27 hlineto
          -14 -84 -12 -84 -13 -78 rrcurveto
          -73 -94 -193 -337 147 hhcurveto
          126 54 340 316 51 hvcurveto
          32 2 28 8 23 10 rrcurveto
          -56 15 -51 35 16 1 12 0 vhcurveto
          -25 -6 60 59 4 hvcurveto
          50 66 9 76 -40 hhcurveto
          -43 -25 -64 -64 -6 hvcurveto
          -22 -11 -26 -9 -33 -2 8 51 8 51 9 49 rrcurveto
          20 170 108 368 -138 hhcurveto
          -116 -56 -262 -278 -45 hvcurveto
          221 517 rmoveto
          81 -83 -309 -30 -137 hvcurveto
          191 35 39 148 65 hhcurveto
          -407 -1165 rmoveto
          -73 132 271 83 80 hvcurveto
          -198 -34 -39 -156 -66 hhcurveto
          392 780 rmoveto
          13 -6 -43 -37 -38 hvcurveto
          43 5 12 37 14 hhcurveto
          endchar
        </CharString>
        <CharString name="five">
          93 -38 25 -25 275 -21 84 -20 129 -21 162 -49 99 -99 171 hstemhm
          hintmask 10101000
          366 658 rmoveto
          37 -8 -108 -95 hhcurveto
          hintmask 10010100
          -80 -13 50 -29 hhcurveto
          -1 hlineto
          -39 -4 -115 -88 -14 hvcurveto
          -31 -87 -19 -86 58 hhcurveto
          37 19 47 56 11 hvcurveto
          hintmask 10101000
          3 11 12 2 13 232 -69 -401 -209 -165 23 229 104 hhcurveto
          hintmask 01010010
          15 -2 21 -13 -148 -38 -275 225 283 98 447 -321 hhcurveto
          -17 -16 -2 -3 -15 hvcurveto
          9 50 3 54 7 34 rrcurveto
          -4 3 37 -37 76 141 11 171 -46 -15 -4 -14 2 hhcurveto
          hintmask 10101000
          -294 -358 rmoveto
          -24 16 52 24 53 hvcurveto
          -44 -9 -13 -32 -23 hhcurveto
          endchar
        </CharString>
        <CharString name="florin">
          -154 -283 222 850 26 hstem
          173 30 callgsubr
          -93 hlineto
          189 24 38 152 125 123 -28 -174 -89 hhcurveto
          15 callsubr
          -145 -53 -166 -201 -35 hvcurveto
          -62 hlineto
          -18 0 -23 18 hhcurveto
          58 hlineto
          -307 -50 -13 -377 -225 0 callsubr
          hhcurveto
          289 8 397 311 38 hvcurveto
          endchar
        </CharString>
        <CharString name="four">
          109 -20 183 -142 -21 140 80 -80 115 365 -20 hstemhm
          hintmask 10001000
          376 241 rmoveto
          34 -9 -78 -81 hhcurveto
          -10 hlineto
          141 18 51 182 44 hhcurveto
          0 1 12 -16 -60 -76 -181 -148 -23 vhcurveto
          -55 9 -46 19 -45 12 rrcurveto
          133 97 47 278 -102 hhcurveto
          -19 -10 -20 0 hvcurveto
          46 -23 -266 -118 -69 hvcurveto
          hintmask 01101000
          2 -14 -14 2 -14 -93 -11 -80 76 hhcurveto
          31 31 20 31 27 hvcurveto
          44 -12 52 -21 61 -11 rrcurveto
          hintmask 10001000
          -93 -12 11 -74 52 hhcurveto
          hintmask 01101000
          -28 callsubr
          -24 -3 61 79 8 hvcurveto
          14 hlineto
          hintmask 01011000
          115 6 115 -45 hhcurveto
          -17 -4 -14 0 hvcurveto
          -376 -80 rmoveto
          -42 8 41 63 hhcurveto
          9 10 -1 -2 10 hvcurveto
          -24 -17 -20 -14 -21 hhcurveto
          endchar
        </CharString>
        <CharString name="g">
          -17 -399 27 304 28 39 29 370 27 hstem
          289 293 rmoveto
          44 9 -10 28 -21 hhcurveto
          -9 -8 -11 -17 -7 hvcurveto
          -18 -7 -131 -291 -73 -96 callsubr
          58 70 109 94 50 hvcurveto
          8 hlineto
          -302 -62 -33 -272 -184 -50 callgsubr
          204 54 233 459 97 hvcurveto
          endchar
        </CharString>
        <CharString name="germandbls">
          -15 -283 222 -222 281 -22 187 500 -20 hstemhm
          79 43 23 64 43 32 0 46 hintmask 01011110
          132 -2 rmoveto
          -39 -14 23 34 68 63 19 0 hvcurveto
          hintmask 10111110
          12 -10 9 -15 vhcurveto
          -81 -37 -187 137 hhcurveto
          72 44 59 63 hvcurveto
          102 -107 25 86 vvcurveto
          hintmask 10111101
          109 185 32 110 vvcurveto
          57 -39 44 -77 vhcurveto
          -318 189 -922 -355 0 callsubr
          432 -234 923 286 hhcurveto
          46 24 -32 -40 hvcurveto
          -107 -162 -32 -124 -79 87 -29 -89 vvcurveto
          hintmask 01011110
          -54 -20 -56 -57 vhcurveto
          endchar
        </CharString>
        <CharString name="grave">
          -9 143 -75 callgsubr
          endchar
        </CharString>
        <CharString name="greater">
          143 26 -21 179 33 203 -20 hstem
          109 5 rmoveto
          66 114 113 131 43 10 33 0 vhcurveto
          -130 -115 126 77 hvcurveto
          0 -16 -3 -30 vvcurveto
          -53 74 -99 78 -37 vhcurveto
          -92 -8 -114 -105 -48 vvcurveto
          -29 17 -3 0 vhcurveto
          endchar
        </CharString>
        <CharString name="guillemotleft">
          132 -39 callgsubr
          178 25 -53 callgsubr
          endchar
        </CharString>
        <CharString name="guillemotright">
          152 10 callsubr
          254 68 -54 callsubr
          -178 -25 -54 callsubr
          endchar
        </CharString>
        <CharString name="guilsinglleft">
          -46 -39 callgsubr
          endchar
        </CharString>
        <CharString name="guilsinglright">
          -29 10 callsubr
          76 68 -54 callsubr
          endchar
        </CharString>
        <CharString name="h">
          5 -13 -21 55 -21 398 25 392 -20 hstemhm
          169 64 -5 57 hintmask 11110100
          8 callgsubr
          49 15 105 329 84 hhcurveto
          17 8 -11 -19 hvcurveto
          hintmask 11111000
          -75 -59 -131 -44 callsubr
          hintmask 11110100
          87 52 139 80 vvcurveto
          34 -22 31 -44 -68 -59 -91 -96 -43 vhcurveto
          -7 hlineto
          11 63 12 67 12 66 -39 callsubr
        </CharString>
        <CharString name="hyphen">
          205 -22 callgsubr
        </CharString>
        <CharString name="i">
          -175 -3 27 484 91 hstem
          106 599 rmoveto
          12 callgsubr
          -100 callsubr
          -64 -575 -60 callgsubr
          -201 -45 -67 -205 127 -64 callsubr
        </CharString>
        <CharString name="iacute">
          -74 callsubr
          124 629 -101 callsubr
          endchar
        </CharString>
        <CharString name="icircumflex">
          -74 callsubr
          111 484 -98 callgsubr
          endchar
        </CharString>
        <CharString name="idieresis">
          -175 -3 27 484 91 -85 callgsubr
          -5 575 -102 callgsubr
          endchar
        </CharString>
        <CharString name="igrave">
          -74 callsubr
          -66 609 -97 callsubr
          endchar
        </CharString>
        <CharString name="j">
          -231 -400 27 881 91 hstem
          19 403 rmoveto
          -23 -124 -24 -139 -28 -126 rrcurveto
          -61 -96 -218 -353 150 hhcurveto
          143 54 391 339 85 hvcurveto
          56 14 -17 38 4 callgsubr
          -9 26 callgsubr
          -242 -776 rmoveto
          -75 152 287 73 84 hvcurveto
          -200 -45 -53 -160 -63 hhcurveto
          309 972 rmoveto
          12 callgsubr
          -100 callsubr
          endchar
        </CharString>
        <CharString name="k">
          -24 -34 218 -176 -21 34 -21 170 253 392 -20 hstemhm
          hintmask 00111000
          8 callgsubr
          27 7 108 352 94 hhcurveto
          hintmask 10001000
          74 -88 -215 -112 hhcurveto
          hintmask 00111000
          0 2 -14 11 vhcurveto
          2 hlineto
          hintmask 10001000
          85 -42 -204 102 hhcurveto
          hintmask 01011000
          28 2 21 0 hvcurveto
          -44 9 148 39 -101 hvcurveto
          34 148 56 215 -121 hhcurveto
          -69 -61 -95 -98 -43 hvcurveto
          -5 hlineto
          12 65 11 69 13 68 -39 callsubr
        </CharString>
        <CharString name="l">
          -168 -13 -21 849 -20 hstem
          -23 56 vstem
          72 310 rmoveto
          117 96 193 388 -125 hhcurveto
          -152 -107 -571 -131 -81 18 -66 64 28 2 21 0 hvcurveto
          -39 -17 41 72 117 102 574 103 64 -129 -298 -146 -97 hvcurveto
          -11 -16 -1 -31 8 10 rrcurveto
          endchar
        </CharString>
        <CharString name="less">
          103 26 -21 203 33 179 -20 hstem
          339 420 rmoveto
          -66 -115 -113 -130 -43 -11 -33 0 vhcurveto
          131 114 -126 -77 hvcurveto
          0 17 3 29 vvcurveto
          53 -73 98 -77 38 vhcurveto
          91 9 113 104 48 vvcurveto
          30 -17 3 0 vhcurveto
          endchar
        </CharString>
        <CharString name="logicalnot">
          363 123 -21 186 33 hstem
          528 284 rmoveto
          -55 -182 rlineto
          24 hlineto
          0 69 158 13 31 vhcurveto
          8 20 -12 18 -31 -1 -474 -14 rcurveline
          -21 vlineto
          endchar
        </CharString>
        <CharString name="m">
          212 -13 -21 55 -21 429 -20 hstemhm
          224 57 101 64 -6 57 hintmask 11110100
          13 -13 callsubr
          24 6 119 359 77 hhcurveto
          12 8 -10 -19 -57 -30 -141 -18 -109 hvcurveto
          -40 callgsubr
          29 6 112 341 83 hhcurveto
          12 8 -10 -19 hvcurveto
          hintmask 11111000
          -72 -58 -127 -105 vvcurveto
          hintmask 11110100
          -24 callgsubr
          hintmask 11111000
          -15 -9 24 41 hvcurveto
          hintmask 11110100
          87 51 130 79 vvcurveto
          36 -24 32 -37 -66 -58 -91 -94 -43 vhcurveto
          -4 hlineto
          10 49 6 45 36 vvcurveto
          36 -23 32 -38 -65 -61 -99 -99 -44 vhcurveto
          -6 hlineto
          15 76 -37 callgsubr
        </CharString>
        <CharString name="mu">
          62 -303 -21 321 31 -7 -21 424 -20 hstemhm
          hintmask 11010000
          279 24 -60 callgsubr
          0 -153 -375 -79 -51 65 194 109 29 vhcurveto
          -73 callsubr
          -11 -39 -11 -38 -10 -38 rrcurveto
          -227 -67 -114 -385 128 hhcurveto
          -28 callsubr
          -47 11 164 164 34 hvcurveto
          hintmask 10110000
          -16 10 18 -8 25 hhcurveto
          66 83 147 117 55 hvcurveto
          hintmask 11010000
          -147 -33 -17 -120 98 -64 callsubr
        </CharString>
        <CharString name="multiply">
          134 111 407 rmoveto
          29 -49 41 -69 40 -69 -151 -180 rcurveline
          -29 -35 13 -15 12 13 41 49 65 73 63 71 75 -129 rcurveline
          23 -40 20 6 -10 16 -30 52 -31 58 -30 56 56 63 52 59 29 35 34 41 -19 25 -14 -17 -152 -180 rcurveline
          -29 55 -28 53 -23 40 -27 45 -31 -9 11 -18 rrcurveto
          endchar
        </CharString>
        <CharString name="n">
          31 callsubr
          hstemhm
          169 64 -3 57 hintmask 11101000
          13 378 -23 callsubr
          33 callsubr
          hintmask 11110000
          -36 callsubr
          hintmask 11101000
          -29 callsubr
        </CharString>
        <CharString name="nine">
          94 -29 26 -26 250 379 -20 hstemhm
          -28 42 hintmask 01110000
          14 63 rmoveto
          22 -42 -1 -31 vvcurveto
          -37 31 -45 72 vhcurveto
          330 146 629 -302 -229 -80 -403 202 hhcurveto
          103 59 111 90 3 hvcurveto
          1 18 -21 7 -18 vvcurveto
          -80 -3 -51 -104 -74 -134 73 357 157 hhcurveto
          hintmask 10110000
          177 -104 -581 -237 hhcurveto
          -59 -18 36 30 hvcurveto
          endchar
        </CharString>
        <CharString name="ntilde">
          31 callsubr
          76 26 callsubr
          169 64 -3 57 hintmask 11111100
          158 -77 callgsubr
          -145 -201 -23 callsubr
          hintmask 11111010
          33 callsubr
          hintmask 11111100
          -36 callsubr
          hintmask 11111010
          -29 callsubr
        </CharString>
        <CharString name="numbersign">
          264 -39 276 -31 31 -31 181 -20 233 hstemhm
          hintmask 01010000
          34 367 rmoveto
          144 hlineto
          -18 -132 rlineto
          1 -45 -39 1 -26 -46 callgsubr
          -27 callgsubr
          -27 callgsubr
          124 hlineto
          -28 callgsubr
          -41 -53 1 1 -58 hvcurveto
          9 48 10 47 8 44 rrcurveto
          116 hlineto
          hintmask 00100000
          -28 callgsubr
          -39 -51 0 2 -54 hvcurveto
          22 119 rlineto
          hintmask 10010000
          56 10 -14 -40 callsubr
          -3 hvcurveto
          -28 -189 -45 2 -46 2 -43 1 rlinecurve
          21 113 rlineto
          56 10 -14 -40 callsubr
          -3 hvcurveto
          -6 -37 -10 -68 -11 -78 rrcurveto
          1 -44 -39 1 -26 -46 callgsubr
          195 hmoveto
          136 hlineto
          -19 -138 -142 5 8 46 9 45 8 42 rlinecurve
          endchar
        </CharString>
        <CharString name="o">
          -26 callsubr
          hstem
          76 hmoveto
          -102 callsubr
        </CharString>
        <CharString name="oacute">
          -26 callsubr
          hstem
          258 -83 callsubr
          -182 -653 rmoveto
          -102 callsubr
        </CharString>
        <CharString name="ocircumflex">
          -26 callsubr
          hstem
          274 -78 callsubr
          -174 -508 rmoveto
          -102 callsubr
        </CharString>
        <CharString name="odieresis">
          -26 callsubr
          65 91 hstem
          125 -89 callsubr
          -175 -599 rmoveto
          -102 callsubr
        </CharString>
        <CharString name="oe">
          171 0 25 -25 184 -165 -21 172 224 -26 26 4 27 -1 -20 hstemhm
          hintmask 00110100
          341 16 callgsubr
          hintmask 10010100
          -67 callgsubr
          hintmask 01001100
          -17 callgsubr
          hintmask 10010100
          -54 callgsubr
          hhcurveto
          -60 -52 -43 -58 -36 hvcurveto
          41 -5 -17 29 -31 hhcurveto
          hintmask 10001010
          -27 -5 -26 0 hvcurveto
          96 -61 -341 -114 -111 71 379 132 28 callgsubr
          18 -23 vhcurveto
          -168 -100 -424 200 hhcurveto
          50 44 46 61 30 hvcurveto
          hintmask 00110100
          -62 14 43 -47 84 hhcurveto
          endchar
        </CharString>
        <CharString name="ograve">
          -26 callsubr
          hstem
          98 -75 callgsubr
          -22 -633 rmoveto
          -102 callsubr
        </CharString>
        <CharString name="one">
          -20 1 -21 41 -21 624 -20 hstemhm
          -15 44 hintmask 10110000
          -15 232 rmoveto
          -39 25 -18 19 14 2 12 0 vhcurveto
          -3 -13 8 20 117 94 68 92 52 hvcurveto
          -191 -82 -44 -281 102 hhcurveto
          hintmask 01110000
          -28 callsubr
          -54 44 311 174 64 hvcurveto
          62 35 50 31 41 vvcurveto
          19 -10 13 -21 -42 -45 -58 -81 -38 vhcurveto
          -110 -55 -135 -73 -125 vvcurveto
          370 368 rmoveto
          8 4 -5 -8 -25 -34 -23 -47 -25 hvcurveto
          52 22 24 34 23 hhcurveto
          endchar
        </CharString>
        <CharString name="onehalf">
          542 -29 18 callgsubr
          275 -20 hstemhm
          122 33 301 291 -48 48 hintmask 1001011100000000
          456 -2 rmoveto
          -11 29 1 10 vvcurveto
          0 6 37 33 vhcurveto
          33 10 -64 70 hhcurveto
          hintmask 0010111100000000
          17 callsubr
          hintmask 1001011100000000
          33 -19 -88 -74 hhcurveto
          hintmask 0100111010000000
          -20 callsubr
          hintmask 1001011010000000
          5 callsubr
          hintmask 1001011100000000
          -144 -243 -121 -52 vvcurveto
          94 648 -65 callsubr
          -65 callgsubr
          endchar
        </CharString>
        <CharString name="onequarter">
          549 16 callsubr
          345 -20 hstemhm
          122 33 hintmask 10000110
          727 151 7 callgsubr
          hintmask 01001110
          0 callgsubr
          -2 callsubr
          hintmask 01100110
          -12 callgsubr
          hintmask 10000110
          -64 -8 6 -51 35 hhcurveto
          hintmask 01010110
          21 2 17 0 hvcurveto
          -16 -1 41 52 5 hvcurveto
          6 hlineto
          83 0 81 -30 hhcurveto
          -16 -2 -14 0 23 callgsubr
          495 -65 callsubr
          hintmask 10000110
          -65 callgsubr
          110 -505 rmoveto
          -1 callsubr
        </CharString>
        <CharString name="onesuperior">
          25 409 -21 428 -20 hstemhm
          139 33 vstemhm
          139 556 -62 callgsubr
          hintmask 11100000
          -65 callgsubr
          endchar
        </CharString>
        <CharString name="ordfeminine">
          178 424 25 -6 -21 281 25 -3 callgsubr
          353 441 rmoveto
          -44 25 21 callsubr
          -13 -7 -13 -9 -4 hvcurveto
          -16 -7 -15 callsubr
          29 callgsubr
          38 46 65 63 34 hvcurveto
          6 hlineto
          hintmask 01100000
          -68 -7 11 -62 59 hhcurveto
          61 63 215 0 hvcurveto
          -21 hlineto
          0 -58 -196 -43 vhcurveto
          endchar
        </CharString>
        <CharString name="ordmasculine">
          15 422 288 -17 44 hstemhm
          hintmask 10000000
          186 422 rmoveto
          70 48 119 92 8 hvcurveto
          -1 6 6 0 7 hhcurveto
          42 22 34 24 hvcurveto
          7 -14 0 -6 vvcurveto
          -12 -15 -27 -30 -8 -8 1 2 -6 vhcurveto
          hintmask 01000000
          47 1 -12 35 -26 hhcurveto
          -31 -5 -72 -25 50 hvcurveto
          -80 -10 -38 -115 -55 -68 47 248 70 hhcurveto
          hintmask 10000000
          0 -3 17 -21 vhcurveto
          -95 -74 -288 142 hhcurveto
          endchar
        </CharString>
        <CharString name="oslash">
          -9 368 26 hstem
          155 577 rmoveto
          -24 -154 -157 -20 -90 -390 183 -13 rlinecurve
          -5 -33 -5 -29 -2 -19 25 callsubr
          4 28 6 41 8 47 rrcurveto
          26 137 76 367 -114 hhcurveto
          -27 -5 -26 0 hvcurveto
          91 -51 -308 -31 -103 hvcurveto
          30 178 45 254 11 74 6 53 -29 10 -3 -21 rrcurveto
          -28 -181 rmoveto
          -56 -369 -89 17 52 295 93 57 rlinecurve
          endchar
        </CharString>
        <CharString name="otilde">
          -26 callsubr
          62 35 10 29 hstem
          142 -77 callgsubr
          -66 -579 rmoveto
          -102 callsubr
        </CharString>
        <CharString name="p">
          0 -399 27 371 28 365 33 1 -20 hstemhm
          hintmask 11100000
          88 60 rmoveto
          -3 17 -24 -4 3 -20 rrcurveto
          -27 4 16 -27 37 171 89 426 -161 hhcurveto
          -64 -64 -107 -106 -49 hvcurveto
          -7 hlineto
          hintmask 11010000
          16 66 16 62 20 66 rrcurveto
          19 callgsubr
          -22 -92 -24 -146 -26 -136 rrcurveto
          -92 -77 -118 -280 94 hhcurveto
          70 31 165 235 52 hvcurveto
          hintmask 11100000
          73 16 122 318 90 87 -107 -365 -77 hhcurveto
          -21 -10 14 19 -3 hvcurveto
          -253 -432 rmoveto
          -48 81 204 98 63 hvcurveto
          -163 -31 -33 -139 -32 hhcurveto
          endchar
        </CharString>
        <CharString name="paragraph">
          351 -113 26 -26 284 -227 27 181 149 365 97 -22 159 hstemhm
          hintmask 10111000
          439 -29 rmoveto
          0 -7 -27 24 153 -28 462 276 44 vhcurveto
          -9 24 23 -7 21 89 10 97 -88 hhcurveto
          -27 -21 -8 -12 -19 hvcurveto
          84 20 31 56 53 hhcurveto
          hintmask 10110100
          -11 callsubr
          -57 -33 -75 -108 -22 vhcurveto
          -3 -3 rlineto
          16 -41 -48 18 -66 -333 -45 -463 262 hhcurveto
          21 2 16 0 hvcurveto
          -198 87 423 227 hhcurveto
          42 40 -14 -15 37 hvcurveto
          -201 -123 90 -581 -353 -226 49 239 104 hhcurveto
          hintmask 01001000
          0 -7 19 -23 vhcurveto
          -138 -42 -284 283 hhcurveto
          355 -49 522 228 82 hvcurveto
          hintmask 10110100
          -275 -41 -1 -391 -114 hhcurveto
          266 770 rmoveto
          50 -3 -52 -58 hhcurveto
          -21 -20 6 9 -23 hvcurveto
          24 19 24 13 32 hhcurveto
          endchar
        </CharString>
        <CharString name="parenleft">
          -100 292 815 rmoveto
          -225 -28 -172 -752 224 -122 13 -7 4 16 -9 6 -146 93 146 749 168 26 9 1 0 19 -12 -1 rrcurveto
          endchar
        </CharString>
        <CharString name="parenright">
          -15 -5 -93 rmoveto
          225 28 172 752 -224 122 -13 7 -4 -16 9 -6 146 -93 -146 -749 -168 -26 -9 -1 0 -19 12 1 rrcurveto
          endchar
        </CharString>
        <CharString name="percent">
          340 -92 callsubr
          endchar
        </CharString>
        <CharString name="period">
          -196 20 callsubr
          hstemhm
          hintmask 10000000
          100 72 rmoveto
          hintmask 01000000
          12 callgsubr
          hintmask 10000000
          -100 callsubr
          endchar
        </CharString>
        <CharString name="periodcentered">
          -36 211 91 hstem
          177 302 rmoveto
          12 callgsubr
          -100 callsubr
          endchar
        </CharString>
        <CharString name="perthousand">
          646 -92 callsubr
          306 hmoveto
          hintmask 01011000
          -79 callsubr
          endchar
        </CharString>
        <CharString name="plus">
          268 283 31 hstem
          302 506 rmoveto
          -6 -48 -8 -72 -8 -76 rrcurveto
          2 -62 -55 2 -37 -46 callgsubr
          52 69 0 1 70 hvcurveto
          -8 -76 -8 -76 -5 -54 -4 -45 18 -6 3 18 7 69 12 88 12 82 rrcurveto
          1 58 58 0 49 -28 callgsubr
          -61 -69 2 2 -64 hvcurveto
          9 60 7 55 4 40 6 53 -30 10 -2 -21 rrcurveto
          endchar
        </CharString>
        <CharString name="plusminus">
          297 107 31 -31 179 hstemhm
          hintmask 01000000
          131 264 rmoveto
          50 59 0 1 57 hvcurveto
          -3 -29 -2 -21 0 vvcurveto
          -45 14 -6 3 18 vhcurveto
          11 83 rlineto
          49 46 1 33 -28 callgsubr
          -40 -58 2 2 -58 hvcurveto
          16 115 6 53 -30 10 -2 -21 rlinecurve
          -1 -8 -87 -7 -68 vhcurveto
          2 -48 -47 2 -34 -46 callgsubr
          -24 -157 24 callgsubr
          hhcurveto
          hintmask 10000000
          -8 callsubr
        </CharString>
        <CharString name="q">
          -17 -157 51 -51 122 -122 137 -37 109 354 52 -27 27 hstemhm
          hintmask 01001000
          -60 -35 rmoveto
          hintmask 10011000
          -19 -4 -22 0 hvcurveto
          77 45 -100 121 hhcurveto
          hintmask 00101000
          117 29 137 -40 10 callgsubr
          hintmask 10010100
          19 -12 -73 -83 hhcurveto
          -90 -44 33 21 -40 hvcurveto
          36 278 83 474 -158 hhcurveto
          -27 -5 -27 0 hvcurveto
          hintmask 01001000
          122 -75 -466 -279 hhcurveto
          hintmask 10011000
          137 87 rmoveto
          -109 80 354 118 hhcurveto
          0 -9 13 -23 vhcurveto
          -150 -93 -383 163 hhcurveto
          21 2 16 0 hvcurveto
          endchar
        </CharString>
        <CharString name="question">
          174 -72 callsubr
        </CharString>
        <CharString name="questiondown">
          64 -72 callsubr
        </CharString>
        <CharString name="quotedbl">
          -66 615 180 hstem
          197 795 rmoveto
          -14 callsubr
          119 hmoveto
          -14 callsubr
          endchar
        </CharString>
        <CharString name="quotedblbase">
          -50 -93 165 hstem
          99 72 -45 callgsubr
        </CharString>
        <CharString name="quotedblleft">
          -92 11 callgsubr
          150 629 rmoveto
          -36 callgsubr
          -122 hmoveto
          -36 callgsubr
          endchar
        </CharString>
        <CharString name="quotedblright">
          -67 11 callgsubr
          194 794 -45 callgsubr
        </CharString>
        <CharString name="quoteleft">
          -198 11 callgsubr
          28 629 rmoveto
          -36 callgsubr
          endchar
        </CharString>
        <CharString name="quoteright">
          -184 11 callgsubr
          194 794 rmoveto
          -71 callgsubr
        </CharString>
        <CharString name="quotesinglbase">
          -198 -93 165 hstem
          99 72 rmoveto
          -71 callgsubr
        </CharString>
        <CharString name="quotesingle">
          -62 11 callgsubr
          315 794 rmoveto
          -71 callgsubr
        </CharString>
        <CharString name="r">
          -83 21 -21 270 155 -27 27 -3 callgsubr
          14 -13 callsubr
          33 7 109 345 79 41 -45 -113 -15 hhcurveto
          hintmask 11000000
          0 0 -15 18 vhcurveto
          81 14 155 -85 hhcurveto
          -58 -57 -100 -100 -43 hvcurveto
          -5 hlineto
          16 82 -37 callgsubr
        </CharString>
        <CharString name="registered">
          141 424 67 -10 86 -7 154 -139 139 -10 46 hstemhm
          hintmask 10001000
          132 587 rmoveto
          -90 -10 65 -73 91 hhcurveto
          89 80 73 90 11 hvcurveto
          90 7 -64 73 -91 hhcurveto
          -89 -80 -73 -90 -9 hvcurveto
          181 96 rmoveto
          -20 -9 -25 -32 -6 hvcurveto
          -29 -1 -5 -32 27 -11 rrcurveto
          -46 -8 -12 -45 -37 hhcurveto
          hintmask 10100000
          -41 6 69 48 hhcurveto
          hintmask 01010000
          0 0 7 -10 vhcurveto
          -46 -17 -86 64 hhcurveto
          51 14 49 49 6 hvcurveto
          2 hlineto
          9 9 1 3 8 hvcurveto
          9 -45 -14 -72 52 -6 rrcurveto
          -15 -26 -29 -9 -31 hhcurveto
          -83 -61 68 83 9 hvcurveto
          83 8 75 68 84 hhcurveto
          83 61 -68 -83 -8 hvcurveto
          -5 -49 -28 -43 -39 -28 -35 7 10 69 -17 45 rrcurveto
          hintmask 10010000
          31 61 12 95 -93 -116 -14 -139 55 hhcurveto
          9 2 8 0 hvcurveto
          hintmask 10001000
          -48 13 121 99 hhcurveto
          62 -6 -75 -29 -41 hvcurveto
          -7 12 -10 9 -15 3 rrcurveto
          30 3 5 23 17 hhcurveto
          0 1 6 -8 vhcurveto
          -19 -67 rmoveto
          10 -4 7 -8 4 -11 rrcurveto
          -3 -8 -8 -2 -9 hhcurveto
          -17 3 rmoveto
          -16 7 4 17 16 3 -2 -9 -1 -9 -1 -9 rrcurveto
          endchar
        </CharString>
        <CharString name="s">
          -88 -24 30 528 -20 hstem
          130 62 vstem
          27 300 -63 callsubr
        </CharString>
        <CharString name="scaron">
          -88 -24 30 702 -20 hstem
          130 62 vstem
          53 708 -59 callgsubr
          -50 -408 -63 callsubr
        </CharString>
        <CharString name="section">
          178 -16 -21 45 -21 832 -20 hstemhm
          -15 60 51 58 55 58 23 62 51 62 -44 44 -44 61 hintmask 1111111010000000
          45 91 rmoveto
          41 -60 -3 -34 vvcurveto
          -69 50 -63 113 121 83 85 105 15 -2 14 -3 13 vhcurveto
          65 27 53 69 81 155 -198 50 123 vvcurveto
          55 35 40 54 49 16 -25 -41 vhcurveto
          hintmask 1111111001000000
          -26 61 0 26 vvcurveto
          51 -43 39 -71 -101 -58 -62 -77 -32 8 -26 13 -24 vhcurveto
          -86 -9 -48 -58 -70 -153 194 -32 -143 vvcurveto
          -74 -48 -72 -91 -86 -20 47 57 vhcurveto
          109 390 rmoveto
          55 35 40 54 vhcurveto
          2 hlineto
          hintmask 1111111100000000
          56 -75 102 -46 -103 vvcurveto
          -53 -28 -52 -38 -25 vhcurveto
          -45 104 -138 52 103 vvcurveto
          endchar
        </CharString>
        <CharString name="semicolon">
          -170 -93 165 189 91 hstem
          86 72 rmoveto
          -21 -8 -17 -18 1 hvcurveto
          -47 1 -10 -70 -28 hhcurveto
          0 0 -13 17 vhcurveto
          58 52 165 -62 hhcurveto
          32 280 rmoveto
          -45 21 -42 callgsubr
          0 3 -13 12 vhcurveto
          61 15 -43 callsubr
          endchar
        </CharString>
        <CharString name="seven">
          -37 1 -21 41 -21 479 41 -41 143 hstemhm
          hintmask 10010000
          85 607 rmoveto
          0 -5 15 -18 vhcurveto
          -78 -19 -143 121 hhcurveto
          70 69 29 27 58 hvcurveto
          -159 -156 -172 -396 131 hhcurveto
          hintmask 01100000
          -28 callsubr
          -59 202 576 134 8 0 24 -8 -54 -104 -80 -103 -101 20 87 35 hhcurveto
          endchar
        </CharString>
        <CharString name="six">
          75 -8 -21 43 -21 354 27 200 26 hstem
          351 38 vstem
          389 527 rmoveto
          40 1 -24 33 -53 -276 -189 -629 314 212 97 403 -202 hhcurveto
          -103 -59 -111 -90 -3 hvcurveto
          -1 -18 21 -7 18 vvcurveto
          80 3 48 101 76 133 -71 -354 -151 -191 128 581 198 15 callgsubr
          endchar
        </CharString>
        <CharString name="slash">
          103 667 -20 hstem
          351 646 -91 callsubr
          endchar
        </CharString>
        <CharString name="space">
          -105 endchar
        </CharString>
        <CharString name="sterling">
          292 -60 31 5 119 -74 -21 70 25 180 154 -19 219 -26 26 hstemhm
          hintmask 11001010
          192 275 rmoveto
          96 hlineto
          -18 -90 -20 -85 -45 -51 rrcurveto
          25 -45 -44 21 -43 -102 -28 -119 154 hhcurveto
          51 40 13 22 31 hvcurveto
          -34 59 66 -37 82 144 -4 157 -71 hhcurveto
          17 callgsubr
          -55 -54 28 29 -53 hvcurveto
          60 57 24 95 17 96 rrcurveto
          1 32 34 0 46 -28 callgsubr
          -66 -39 0 1 -35 hvcurveto
          154 26 11 151 111 123 -28 -174 -89 hhcurveto
          hintmask 11000100
          15 callsubr
          -143 -27 -167 -162 -31 hvcurveto
          -61 hlineto
          hintmask 10111010
          33 callgsubr
          -95 -275 rmoveto
          -110 13 70 73 hhcurveto
          37 37 -18 -22 39 hvcurveto
          -19 -23 -29 -11 -37 hhcurveto
          endchar
        </CharString>
        <CharString name="t">
          -158 -3 27 587 -20 hstem
          157 30 callgsubr
          -62 hlineto
          19 69 rlineto
          56 15 -14 38 -33 callsubr
          -4 hvcurveto
          -9 -39 -14 -49 -14 -54 rrcurveto
          -52 hlineto
          -18 0 -23 18 hhcurveto
          45 hlineto
          -193 -51 -54 -235 130 -98 callsubr
          -68 56 243 158 42 vhcurveto
          endchar
        </CharString>
        <CharString name="thorn">
          74 -399 108 299 -21 416 26 178 -20 hstemhm
          203 64 -3 57 hintmask 11110100
          255 429 rmoveto
          -195 -51 -720 -53 hhcurveto
          -6 68 505 373 112 hvcurveto
          19 callgsubr
          -214 -51 -131 -713 63 91 66 802 148 hhcurveto
          33 callsubr
          hintmask 11111000
          -36 callsubr
          hintmask 11110100
          2 callgsubr
          vhcurveto
          endchar
        </CharString>
        <CharString name="three">
          93 -38 25 -25 275 -21 99 -21 87 -18 237 -188 188 hstemhm
          hintmask 01010100
          140 212 rmoveto
          0 -2 25 -27 vhcurveto
          -168 -40 -275 226 hhcurveto
          254 79 288 98 -134 hvcurveto
          88 95 -7 164 -166 -175 -17 -188 88 hhcurveto
          22 callsubr
          -52 12 150 111 hhcurveto
          111 -1 -130 -77 -61 hvcurveto
          8 -20 -24 4 -26 -97 -35 -87 98 hhcurveto
          44 38 12 19 31 hvcurveto
          hintmask 10101000
          -95 74 -65 -243 -177 -166 35 229 113 hhcurveto
          10 9 -1 -3 10 hvcurveto
          44 103 rmoveto
          -57 20 48 71 hhcurveto
          20 17 -5 -9 15 hvcurveto
          -21 -24 -29 -13 -33 hhcurveto
          endchar
        </CharString>
        <CharString name="threequarters">
          552 16 callsubr
          -197 90 -21 184 -184 209 -43 23 callsubr
          47 -20 hstemhm
          hintmask 1000001001011000
          174 356 -56 callsubr
          hintmask 1000010010101000
          -64 45 -39 -156 -117 20 callgsubr
          553 -205 7 callgsubr
          hintmask 0100100010101000
          0 callgsubr
          hintmask 0110000101011000
          -2 callsubr
          -12 callgsubr
          hintmask 1000010010101000
          -64 -8 6 -51 35 hhcurveto
          hintmask 0101000010101000
          21 2 17 0 hvcurveto
          -16 -1 41 52 5 hvcurveto
          6 hlineto
          83 0 81 -30 hhcurveto
          -16 -2 -14 0 23 callgsubr
          495 -91 callsubr
          -350 -213 1 callsubr
          278 -335 rmoveto
          hintmask 1000010010101000
          -1 callsubr
        </CharString>
        <CharString name="threesuperior">
          93 393 184 -18 23 callsubr
          hstemhm
          hintmask 10101000
          234 555 -56 callsubr
          -64 45 -39 -156 -117 hhcurveto
          hintmask 01010000
          20 callgsubr
          26 77 1 callsubr
          endchar
        </CharString>
        <CharString name="tilde">
          -20 505 35 10 29 hstem
          162 -77 callgsubr
          endchar
        </CharString>
        <CharString name="trademark">
          199 508 95 -84 -21 96 147 -125 99 -6 32 9 -20 hstemhm
          hintmask 01010100
          304 715 rmoveto
          -67 43 -196 -78 hhcurveto
          hintmask 01100000
          -43 10 75 49 hhcurveto
          hintmask 10001000
          0 -1 9 -10 vhcurveto
          -46 -21 -95 67 103 -53 201 54 hhcurveto
          hintmask 10010100
          0 0 6 -7 vhcurveto
          58 35 rmoveto
          -8 -1 -7 0 hvcurveto
          4 3 -16 -31 hhcurveto
          hintmask 01100000
          -32 -17 14 -35 hhcurveto
          hintmask 01010100
          -90 -17 -125 71 hhcurveto
          6 1 6 0 hvcurveto
          -53 6 109 76 35 17 -15 41 39 -1 34 -14 hhcurveto
          133 -20 rmoveto
          -58 -13 -195 -14 -18 17 192 26 hhcurveto
          0 0 5 -5 vhcurveto
          -45 -27 -213 50 32 2 205 60 hhcurveto
          0 0 6 -7 vhcurveto
          -4 -221 rmoveto
          -30 32 208 24 hhcurveto
          0 0 4 -6 vhcurveto
          -37 -44 -218 56 hhcurveto
          4 1 6 0 hvcurveto
          -209 -11 rmoveto
          100 -33 234 72 hhcurveto
          0 -1 6 -6 vhcurveto
          -72 20 -229 -86 hhcurveto
          endchar
        </CharString>
        <CharString name="two">
          84 -32 71 -71 229 -134 28 -28 250 -14 301 -25 25 hstemhm
          323 66 hintmask 10101010
          -4 9 rmoveto
          11 12 43 45 vhcurveto
          49 15 -95 106 hhcurveto
          hintmask 01001010
          162 29 229 -70 10 callgsubr
          hintmask 10101010
          49 -22 -145 -123 -81 -29 52 -55 hhcurveto
          -5 -7 -1 0 hvcurveto
          110 96 223 133 159 -18 callgsubr
          hintmask 10010110
          22 callsubr
          -5 callgsubr
          -218 -364 -179 -2 -78 hvcurveto
          -18 39 2 16 vvcurveto
          endchar
        </CharString>
        <CharString name="twosuperior">
          130 394 18 callgsubr
          hstemhm
          121 291 -48 48 hintmask 10010100
          150 421 rmoveto
          8 10 29 29 vhcurveto
          33 10 -64 70 hhcurveto
          hintmask 00101100
          17 callsubr
          hintmask 10010100
          33 -19 -88 -74 hhcurveto
          hintmask 01001010
          -20 callsubr
          hintmask 10010010
          5 callsubr
          hintmask 10010100
          -146 -242 -118 -1 -53 vhcurveto
          -11 29 1 10 vvcurveto
          endchar
        </CharString>
        <CharString name="u">
          12 callsubr
          427 -20 -3 callgsubr
          279 24 -69 callgsubr
        </CharString>
        <CharString name="uacute">
          9 callgsubr
          294 -83 callsubr
          -15 -629 -92 callgsubr
        </CharString>
        <CharString name="ucircumflex">
          9 callgsubr
          271 -78 callsubr
          32 -484 -92 callgsubr
        </CharString>
        <CharString name="udieresis">
          12 callsubr
          511 91 -3 callgsubr
          135 -89 callsubr
          18 -575 -69 callgsubr
        </CharString>
        <CharString name="ugrave">
          9 callgsubr
          82 -75 callgsubr
          197 -609 -92 callgsubr
        </CharString>
        <CharString name="underscore">
          250 -65 29 -10 -21 hstemhm
          hintmask 01000000
          -12 -67 rmoveto
          hintmask 10000000
          102 288 -32 callsubr
          -268 -8 callgsubr
        </CharString>
        <CharString name="uni00AD">
          204 -22 callgsubr
        </CharString>
        <CharString name="v">
          -43 9 callsubr
          hstemhm
          hintmask 11000000
          53 hmoveto
          93 76 170 129 20 hvcurveto
          -2 9 9 -1 11 -75 callsubr
          -13 -10 2 3 -10 vhcurveto
          hintmask 10100000
          65 6 -12 49 -35 hhcurveto
          -45 -4 -100 -35 64 hvcurveto
          -116 -20 -65 -165 -79 hhcurveto
          -75 57 173 -2 callgsubr
          -63 -183 148 hhcurveto
          endchar
        </CharString>
        <CharString name="w">
          169 9 callsubr
          -75 34 hstemhm
          hintmask 11010000
          277 27 rmoveto
          -33 -16 50 62 -5 hvcurveto
          116 65 32 147 -55 hhcurveto
          -47 -63 -177 -119 18 hvcurveto
          -46 -32 -36 -33 -35 hhcurveto
          -96 69 196 -2 callgsubr
          -75 -206 169 hhcurveto
          39 39 30 44 35 hvcurveto
          -44 14 29 -30 51 hhcurveto
          93 68 169 130 15 hvcurveto
          -2 8 9 -1 10 -75 callsubr
          -12 -11 2 3 -9 vhcurveto
          hintmask 10100000
          65 3 -12 49 -33 hhcurveto
          -46 -3 -103 -34 68 hvcurveto
          -115 -16 -59 -164 -78 hhcurveto
          hintmask 11010000
          -11 341 rmoveto
          21 -23 -91 -87 -42 hvcurveto
          87 1 20 91 23 hhcurveto
          endchar
        </CharString>
        <CharString name="x">
          -13 8 -21 400 38 hstemhm
          278 -13 rmoveto
          -55 -36 135 117 -38 hvcurveto
          85 72 73 75 33 28 callgsubr
          26 -23 -31 -66 -70 -80 -65 vhcurveto
          75 -26 -28 61 -36 hhcurveto
          -30 -8 -24 0 hvcurveto
          35 23 -78 -88 26 hvcurveto
          -67 -86 -57 -83 -8 -10 -17 -22 16 -21 7 9 5 5 60 84 72 88 rrcurveto
          hintmask 11000000
          -108 32 39 -111 72 hhcurveto
          27 3 21 0 hvcurveto
          endchar
        </CharString>
        <CharString name="y">
          6 callgsubr
          396 -20 hstem
          30 403 -93 callgsubr
        </CharString>
        <CharString name="yacute">
          6 callgsubr
          hstem
          263 -83 callsubr
          -233 -250 -93 callgsubr
        </CharString>
        <CharString name="ydieresis">
          6 callgsubr
          480 91 hstem
          144 -89 callsubr
          -240 -196 -93 callgsubr
        </CharString>
        <CharString name="yen">
          221 -115 145 -145 177 -54 83 -46 309 -283 100 -25 25 -25 208 144 32 121 -20 hstemhm
          176 53 15 51 hintmask 1000100111100000
          278 71 rmoveto
          66 hlineto
          -5 -14 -6 -14 -6 -13 rrcurveto
          -30 hlineto
          hintmask 0010010111100000
          -53 -7 -22 21 hhcurveto
          58 hlineto
          -59 -33 -46 -40 -70 hhcurveto
          hintmask 1001000111100000
          -115 11 136 81 hhcurveto
          hintmask 0100100111100000
          0 -3 17 -22 vhcurveto
          -85 -25 -177 173 hhcurveto
          94 60 51 73 39 hvcurveto
          18 15 32 callgsubr
          0 -25 0 -30 1 vhcurveto
          18 44 rlineto
          13 12 32 callgsubr
          hintmask 0010010111100000
          0 -23 1 -28 vhcurveto
          22 69 11 76 8 68 rrcurveto
          106 69 38 120 -65 hhcurveto
          -62 -16 -131 -141 -25 hvcurveto
          hintmask 1000010111100000
          -50 -40 -45 -37 -41 hhcurveto
          -24 -10 13 23 hvcurveto
          88 66 113 103 vvcurveto
          81 -45 59 -85 vhcurveto
          -175 -50 -314 161 hhcurveto
          hintmask 1000001111100000
          25 2 17 0 hvcurveto
          -156 51 273 142 hhcurveto
          54 25 -32 -54 hvcurveto
          -109 -68 -102 -99 vvcurveto
          -47 20 -38 68 36 42 29 42 40 vhcurveto
          -8 -43 -10 -42 -13 -39 rrcurveto
          -34 hlineto
          hintmask 1000100111100000
          -53 -7 -22 21 hhcurveto
          209 427 rmoveto
          25 -18 -66 -73 -39 hvcurveto
          79 8 5 60 19 hhcurveto
          endchar
        </CharString>
        <CharString name="z">
          3 callsubr
          hstemhm
          hintmask 00111000
          -56 12 21 callgsubr
          hintmask 01001000
          5 callgsubr
          hintmask 10011000
          -45 callsubr
          hintmask 10010100
          -21 callsubr
        </CharString>
        <CharString name="zcaron">
          3 callsubr
          163 -20 hstemhm
          hintmask 00111010
          163 612 -59 callgsubr
          -243 -600 21 callgsubr
          hintmask 01001010
          5 callgsubr
          hintmask 10011010
          -45 callsubr
          hintmask 10010110
          -21 callsubr
        </CharString>
        <CharString name="zero">
          98 14 -21 580 27 hstem
          163 524 rmoveto
          24 20 38 25 45 172 -95 -558 -181 hhcurveto
          -150 62 433 32 111 hvcurveto
          9 3 -3 24 -13 -4 rrcurveto
          -53 -186 -79 -457 250 246 131 607 -257 hhcurveto
          -76 -55 -46 -42 -29 hvcurveto
          -9 -15 30 5 19 22 rrcurveto
          endchar
        </CharString>
      <CharString index="0">
        0 -4 22 -23 -32 -34 -27 -43 -33 vhcurveto
        -32 7 -34 10 -35 13 rrcurveto
        63 48 57 40 77 hhcurveto
        -16 callsubr
        -215 -819 rmoveto
        -21 -39 -44 -14 -46 hhcurveto
        -68 callgsubr
        68 -71 26 -125 -55 vvcurveto
        -41 6 -36 11 -26 vhcurveto
        -223 405 -88 callsubr
        214 -186 rmoveto
        -16 57 -28 61 -48 42 43 112 41 109 54 79 34 -12 34 -11 33 -8 -67 -101 -59 -170 -21 -158 rrcurveto
        endchar
      </CharString>
      <CharString index="1">
        -89 callgsubr
        hintmask 0101010110000000
        -99 callsubr
        13 callgsubr
        -51 callsubr
        hintmask 1010001010000000
        -79 callgsubr
        13 callgsubr
        -101 callgsubr
      </CharString>
      <CharString index="2">
        -105 callsubr
        hintmask 11010100
        -107 callsubr
        return
      </CharString>
      <CharString index="3">
        -103 callgsubr
        -152 -190 -11 callgsubr
        50 62 49 68 58 vhcurveto
        -103 8 35 -83 73 -18 callsubr
        -69 -21 118 126 5 hvcurveto
        146 99 66 174 -77 hhcurveto
        -5 -32 rmoveto
        35 -44 -117 -116 -71 hvcurveto
        121 12 32 112 36 hhcurveto
        endchar
      </CharString>
      <CharString index="4">
        133 -63 95 -127 vhcurveto
        -251 -78 -474 -63 callgsubr
        9 -16 4 -4 -8 rrcurveto
        -49 -23 -39 -37 -55 -189 67 427 224 hhcurveto
        87 52 -55 -92 23 callgsubr
        return
      </CharString>
      <CharString index="5">
        rmoveto
        12 callgsubr
        -100 callsubr
        126 hmoveto
        12 callgsubr
        -100 callsubr
        return
      </CharString>
      <CharString index="6">
        -100 callgsubr
        -101 -317 -74 callgsubr
      </CharString>
      <CharString index="7">
        0 1 17 -14 vhcurveto
        188 -638 -83 callgsubr
        20 497 rmoveto
        -35 callsubr
        -31 -27 3 5 -23 hvcurveto
        102 25 88 109 116 hhcurveto
        return
      </CharString>
      <CharString index="8">
        -95 callgsubr
        hintmask 01100000
        -97 callgsubr
      </CharString>
      <CharString index="9">
        rmoveto
        0 -36 71 -14 28 vhcurveto
        -4 8 -11 0 -10 -8 rrcurveto
        -40 -32 -81 -67 0 vvcurveto
        25 hlineto
        109 64 38 -64 rlineto
        return
      </CharString>
      <CharString index="10">
        -99 -17 5 -93 78 -98 callsubr
        -48 40 158 111 23 vhcurveto
        44 9 -10 28 -21 hhcurveto
        -12 -7 -13 -17 -6 hvcurveto
        endchar
      </CharString>
      <CharString index="11">
        0 -5 17 -16 -64 -38 -45 -69 -27 vhcurveto
        4 -44 -51 5 -23 -308 -2 -327 142 hhcurveto
        27 1 22 0 hvcurveto
        -108 -11 281 272 hhcurveto
        15 42 -4 -3 40 hvcurveto
        -240 -78 33 -473 -319 -284 44 381 199 hhcurveto
        return
      </CharString>
      <CharString index="12">
        rmoveto
        -25 -9 -127 -282 -74 -96 callsubr
        55 67 99 91 49 14 callsubr
        return
      </CharString>
      <CharString index="13">
        -87 callgsubr
        -76 callgsubr
        return
      </CharString>
      <CharString index="14">
        rmoveto
        -47 callgsubr
        64 80 138 115 55 hvcurveto
        6 hlineto
        -332 -65 -30 -293 -192 -50 callgsubr
        209 59 270 459 94 hvcurveto
        56 11 -14 14 callgsubr
        -5 -8 -2 -19 -7 hvcurveto
        -89 -33 -129 -286 -68 -84 callgsubr
        endchar
      </CharString>
      <CharString index="15">
        -82 callgsubr
        -9 -4 -5 -16 -7 hvcurveto
        -25 -11 -141 -350 -78 -84 callgsubr
        -47 callgsubr
        61 76 125 111 54 14 callsubr
        hintmask 01000000
        -134 -29 -9 -105 92 -64 callsubr
      </CharString>
      <CharString index="16">
        rmoveto
        -30 callgsubr
        130 174 -86 callsubr
        -143 -169 -167 vvcurveto
        hintmask 10011111
        -29 callgsubr
        hintmask 10101111
        -35 callgsubr
        hintmask 01001111
        0 6 -52 callsubr
        hhcurveto
        hintmask 10101111
        -78 callgsubr
      </CharString>
      <CharString index="17">
        0 4 -22 28 vhcurveto
        152 37 301 -218 -247 -26 -449 336 hhcurveto
        return
      </CharString>
      <CharString index="18">
        rmoveto
        -195 -70 -273 -86 189 hvcurveto
        -7 -42 4 -41 16 -33 -248 -125 -37 -391 251 -61 rrcurveto
        -70 callgsubr
        return
      </CharString>
      <CharString index="19">
        0 2 -13 12 vhcurveto
        61 return
      </CharString>
      <CharString index="20">
        293 230 753 -273 -81 callsubr
        return
      </CharString>
      <CharString index="21">
        -98 callsubr
        vhcurveto
        return
      </CharString>
      <CharString index="22">
        hstem
        42 24 -60 callgsubr
        -201 -45 -67 -205 127 -86 callgsubr
        return
      </CharString>
      <CharString index="23">
        hhcurveto
        -51 65 194 -80 callgsubr
        return
      </CharString>
      <CharString index="24">
        rmoveto
        160 -74 -397 -301 hhcurveto
        34 callgsubr
        2 -9 hvcurveto
        174 3 101 220 141 hhcurveto
        return
      </CharString>
      <CharString index="25">
        rmoveto
        -55 55 195 111 25 hvcurveto
        56 13 -16 14 callgsubr
        return
      </CharString>
      <CharString index="26">
        -21 -8 -17 -18 -47 -13 -70 -28 hvcurveto
        0 0 -13 17 vhcurveto
        58 57 165 -62 hhcurveto
        return
      </CharString>
      <CharString index="27">
        109 29 hvcurveto
        -73 callsubr
        return
      </CharString>
      <CharString index="28">
        -77 callsubr
        -165 66 237 182 hhcurveto
        return
      </CharString>
      <CharString index="29">
        -5 callsubr
        328 63 349 258 31 hvcurveto
        140 92 58 165 -76 hhcurveto
        -82 -20 -160 -184 -32 hvcurveto
        -71 -53 -60 -54 -50 hhcurveto
        292 437 rmoveto
        33 -35 -103 -106 -60 hvcurveto
        120 14 11 89 37 hhcurveto
        endchar
      </CharString>
      <CharString index="30">
        579 -94 callsubr
        return
      </CharString>
      <CharString index="31">
        206 -199 -702 -265 -321 187 826 353 hhcurveto
        return
      </CharString>
      <CharString index="32">
        633 -97 callsubr
        return
      </CharString>
      <CharString index="33">
        rmoveto
        89 -16 -67 -101 hhcurveto
        -43 -29 16 26 -17 hvcurveto
        16 35 39 9 43 hhcurveto
        endchar
      </CharString>
      <CharString index="34">
        969 -102 callgsubr
        return
      </CharString>
      <CharString index="35">
        24 -20 28 -40 vhcurveto
        -192 -107 -426 161 hhcurveto
        return
      </CharString>
      <CharString index="36">
        -81 callgsubr
        endchar
      </CharString>
      <CharString index="37">
        -115 8 49 -93 93 hhcurveto
        21 4 17 0 hvcurveto
        -90 -41 81 103 -4 hvcurveto
        return
      </CharString>
      <CharString index="38">
        -82 callgsubr
        -9 -4 -5 -16 -7 hvcurveto
        -25 -11 -141 -350 -78 -84 callgsubr
        -47 callgsubr
        61 76 125 111 54 14 callsubr
        hintmask 01100000
        -134 -29 -9 -105 92 -64 callsubr
      </CharString>
      <CharString index="39">
        -64 -50 19 30 -38 hvcurveto
        72 91 51 28 callsubr
        124 rrcurveto
        return
      </CharString>
      <CharString index="40">
        -43 callgsubr
        -167 110 373 108 hhcurveto
        return
      </CharString>
      <CharString index="41">
        878 -98 callgsubr
        return
      </CharString>
      <CharString index="42">
        43 23 36 21 30 vvcurveto
        13 -6 12 -19 -27 -30 -39 -54 -25 vhcurveto
        -73 -36 -91 -47 -84 vvcurveto
        246 241 rmoveto
        5 3 -4 -5 -16 -22 -14 -30 -16 hvcurveto
        33 14 15 22 15 hhcurveto
        return
      </CharString>
      <CharString index="43">
        -54 callgsubr
        -188 -116 -427 254 hhcurveto
        endchar
      </CharString>
      <CharString index="44">
        227 hhcurveto
        64 45 46 58 24 hvcurveto
        4 return
      </CharString>
      <CharString index="45">
        rmoveto
        -26 17 -15 12 15 0 12 0 vhcurveto
        -2 -9 5 13 74 59 43 59 33 hvcurveto
        -127 -51 -27 -180 66 hhcurveto
        20 3 17 0 hvcurveto
        -34 24 197 115 40 hvcurveto
        return
      </CharString>
      <CharString index="46">
        1023 -101 callsubr
        return
      </CharString>
      <CharString index="47">
        -82 callgsubr
        -6 -8 -3 -18 -4 hvcurveto
        return
      </CharString>
      <CharString index="48">
        rmoveto
        0 36 -71 14 -28 vhcurveto
        4 -8 11 0 10 8 rrcurveto
        40 32 81 67 0 vvcurveto
        -25 hlineto
        -93 -64 -54 64 rlineto
        return
      </CharString>
      <CharString index="49">
        -319 -18 -374 158 hhcurveto
        27 6 return
      </CharString>
      <CharString index="50">
        -80 40 -71 -142 -89 hhcurveto
        0 1 -21 22 vhcurveto
        -223 -109 rmoveto
        158 -62 94 249 181 hhcurveto
        43 30 -14 -20 19 hvcurveto
        -121 -103 -124 -121 -60 -149 rrcurveto
        506 623 rmoveto
        94 21 50 45 24 13 -18 -30 1 vhcurveto
        2 -54 -41 -55 -60 -59 rrcurveto
        -3 27 -2 25 20 vvcurveto
        endchar
      </CharString>
      <CharString index="51">
        rmoveto
        399 -64 499 237 60 hvcurveto
        25 hlineto
        220 1 196 -70 hhcurveto
        return
      </CharString>
      <CharString index="52">
        rmoveto
        -42 -34 -24 -40 -29 hvcurveto
        20 -67 -67 26 -86 -87 callsubr
        80 63 -22 -19 64 hvcurveto
        -226 -138 -23 -608 -360 -82 callsubr
        return
      </CharString>
      <CharString index="53">
        0 2 -14 13 vhcurveto
        147 92 255 -132 return
      </CharString>
      <CharString index="54">
        rmoveto
        0 -145 -92 -33 -21 vhcurveto
        -7 -5 -2 -4 5 -7 rrcurveto
        30 -42 100 -116 0 vvcurveto
        27 vlineto
        -87 128 139 107 rlineto
        return
      </CharString>
      <CharString index="55">
        rmoveto
        -17 -100 -19 -102 -18 -109 rrcurveto
        -40 callgsubr
        return
      </CharString>
      <CharString index="56">
        rmoveto
        -48 callsubr
        hintmask 11010000
        -94 callgsubr
        return
      </CharString>
      <CharString index="57">
        -145 105 304 231 9 1 28 -10 -257 -129 -359 195 hhcurveto
        return
      </CharString>
      <CharString index="58">
        27 -86 -61 72 -118 -291 -101 -508 387 hhcurveto
        23 22 2 3 20 hvcurveto
        -51 -95 -57 -86 -66 -55 rrcurveto
        42 -63 -64 38 -71 -128 -30 -165 203 hhcurveto
        47 43 13 24 40 hvcurveto
        -60 71 77 -66 120 hhcurveto
        return
      </CharString>
      <CharString index="59">
        -70 -21 69 25 458 32 324 -20 hstem
        139 64 88 51 89 61 vstem
        return
      </CharString>
      <CharString index="60">
        -198 -55 -74 -205 124 hhcurveto
        return
      </CharString>
      <CharString index="61">
        -53 -7 -31 21 hhcurveto
        return
      </CharString>
      <CharString index="62">
        -10 callgsubr
        122 hmoveto
        -71 callgsubr
      </CharString>
      <CharString index="63">
        -68 callsubr
        hstemhm
        hintmask 10101000
        return
      </CharString>
      <CharString index="64">
        0 -122 -275 -113 vhcurveto
        return
      </CharString>
      <CharString index="65">
        -78 -24 hhcurveto
        return
      </CharString>
      <CharString index="66">
        -78 -39 -70 -152 -19 1 -24 3 -26 hvcurveto
        -40 -35 -45 -36 -46 -39 rrcurveto
        25 -26 -38 16 -51 hhcurveto
        10 -325 rmoveto
        133 56 171 94 -67 hvcurveto
        40 34 40 32 37 31 rrcurveto
        return
      </CharString>
      <CharString index="67">
        -41 -7 10 -26 23 -31 callsubr
        return
      </CharString>
      <CharString index="68">
        10 callsubr
        223 355 -53 callgsubr
        return
      </CharString>
      <CharString index="69">
        2 hlineto
        2 9 17 14 32 68 -28 -106 -95 -43 5 35 20 hhcurveto
        0 -1 12 -13 vhcurveto
        return
      </CharString>
      <CharString index="70">
        rlineto
        56 11 -17 36 4 callgsubr
        -9 26 callgsubr
        endchar
      </CharString>
      <CharString index="71">
        21 8 17 18 47 13 70 28 hvcurveto
        0 0 13 -17 vhcurveto
        -58 -57 -165 62 hhcurveto
        return
      </CharString>
      <CharString index="72">
        -285 47 381 200 173 -44 -245 -91 hhcurveto
        return
      </CharString>
      <CharString index="73">
        57 -1 29 -10 -21 401 27 return
      </CharString>
      <CharString index="74">
        244 482 27 -27 145 return
      </CharString>
      <CharString index="75">
        -90 callgsubr
        403 -24 638 217 140 hvcurveto
        22 -6 23 -5 23 -4 rrcurveto
        return
      </CharString>
      <CharString index="76">
        113 -24 113 -22 98 -25 25 return
      </CharString>
      <CharString index="77">
        -45 -14 -21 callgsubr
        return
      </CharString>
      <CharString index="78">
        -76 32 -58 92 46 55 41 58 52 vhcurveto
        -237 -44 -74 -256 -250 hhcurveto
        return
      </CharString>
      <CharString index="79">
        -38 callsubr
        hhcurveto
        return
      </CharString>
      <CharString index="80">
        145 hlineto
        -11 -75 -10 -65 -5 -38 rrcurveto
        hintmask 10010000
        -41 -6 1 -26 15 -31 callsubr
        hintmask 01010000
        9 54 16 84 16 87 rrcurveto
        return
      </CharString>
      <CharString index="81">
        -53 -33 callgsubr
        -3 callgsubr
        return
      </CharString>
      <CharString index="82">
        -46 callgsubr
        endchar
      </CharString>
      <CharString index="83">
        -54 17 -37 41 28 2 21 0 vhcurveto
        return
      </CharString>
      <CharString index="84">
        -60 -2 27 -27 186 214 27 return
      </CharString>
      <CharString index="85">
        283 31 hstem
        107 283 24 callgsubr
        -8 callsubr
      </CharString>
      <CharString index="86">
        31 44 hvcurveto
        138 return
      </CharString>
      <CharString index="87">
        hhcurveto
        -38 callgsubr
        -27 -13 -60 75 hhcurveto
        return
      </CharString>
      <CharString index="88">
        rmoveto
        -69 callsubr
        return
      </CharString>
      <CharString index="89">
        vvcurveto
        74 -45 48 -93 vhcurveto
        -219 -53 -301 150 hhcurveto
        return
      </CharString>
      <CharString index="90">
        72 -102 -214 -93 hhcurveto
        return
      </CharString>
      <CharString index="91">
        0 vvcurveto
        -27 hlineto
        0 return
      </CharString>
      <CharString index="92">
        -19 callsubr
        324 -20 hstemhm
        225 64 79 51 hintmask 10101111
        return
      </CharString>
      <CharString index="93">
        -127 -339 -62 -461 264 hhcurveto
        23 3 23 0 hvcurveto
        -221 47 417 285 127 return
      </CharString>
      <CharString index="94">
        135 29 137 -99 hhcurveto
        -26 -19 -7 -6 -11 hvcurveto
        return
      </CharString>
      <CharString index="95">
        2 -9 -10 1 -10 -68 -9 -61 58 hhcurveto
        23 22 14 22 19 hvcurveto
        29 -8 33 -12 38 -7 rrcurveto
        return
      </CharString>
      <CharString index="96">
        13 callsubr
        32 -58 92 return
      </CharString>
      <CharString index="97">
        rmoveto
        -81 callgsubr
        return
      </CharString>
      <CharString index="98">
        196 -151 -429 -402 hhcurveto
        -14 hlineto
        210 61 153 219 157 hhcurveto
        return
      </CharString>
      <CharString index="99">
        9 -99 hhcurveto
        hintmask 01000000
        -25 callgsubr
      </CharString>
      <CharString index="100">
        -186 52 309 182 2 callsubr
        -173 -78 -355 250 return
      </CharString>
      <CharString index="101">
        219 128 404 -181 -164 -45 -272 84 hhcurveto
        13 5 15 0 hvcurveto
        return
      </CharString>
      <CharString index="102">
        -95 33 262 147 hhcurveto
        60 27 -35 -56 return
      </CharString>
      <CharString index="103">
        -419 160 -19 283 -19 return
      </CharString>
      <CharString index="104">
        hstemhm
        hintmask 10100000
        return
      </CharString>
      <CharString index="105">
        -80 callgsubr
        -198 -55 return
      </CharString>
      <CharString index="106">
        -419 312 -292 -20 285 27 -27 285 277 27 333 27 return
      </CharString>
      <CharString index="107">
        0 1 13 -15 -39 -49 -117 -98 -16 vhcurveto
        -35 6 -29 11 -28 8 rrcurveto
        return
      </CharString>
      <CharString index="108">
        rmoveto
        -36 -29 -29 -37 -36 29 -30 36 40 28 30 36 37 -28 29 -40 hvcurveto
        return
      </CharString>
      <CharString index="109">
        87 54 142 80 vvcurveto
        37 -22 31 -44 return
      </CharString>
      <CharString index="110">
        104 25 rmoveto
        -160 108 373 108 53 -49 -113 -15 hhcurveto
        return
      </CharString>
      <CharString index="111">
        -22 hhcurveto
        -6 return
      </CharString>
      <CharString index="112">
        42 13 -72 82 131 20 182 -66 10 callgsubr
        return
      </CharString>
      <CharString index="113">
        -1 -399 27 304 28 40 28 return
      </CharString>
      <CharString index="114">
        rmoveto
        24 -10 -48 -50 hhcurveto
        -3 hlineto
        91 13 33 115 29 hhcurveto
        return
      </CharString>
      <CharString index="115">
        -47 74 rmoveto
        -41 -9 15 -33 23 hhcurveto
        9 4 6 14 4 hvcurveto
        return
      </CharString>
      <CharString index="116">
        12 callsubr
        hstemhm
        hintmask 10000000
        return
      </CharString>
      <CharString index="117">
        hhcurveto
        -13 -2 -13 0 hvcurveto
        return
      </CharString>
      <CharString index="118">
        629 165 hstem
        return
      </CharString>
      <CharString index="119">
        -45 16 -42 callgsubr
        return
      </CharString>
      <CharString index="120">
        hintmask 1010100110000000
        return
      </CharString>
      <CharString index="121">
        38 -22 hhcurveto
        return
      </CharString>
      <CharString index="122">
        hhcurveto
        39 17 -27 -33 -2 hvcurveto
        -20 37 6 1 27 vhcurveto
        return
      </CharString>
      <CharString index="123">
        -2 22 callgsubr
        return
      </CharString>
      <CharString index="124">
        -12 -3 -12 0 hvcurveto
        41 -2 -114 -117 hhcurveto
        return
      </CharString>
      <CharString index="125">
        52 -52 87 -87 153 -89 170 -13 200 return
      </CharString>
      <CharString index="126">
        12 4 -8 8 -10 hhcurveto
        -20 -30 -24 -55 -13 hvcurveto
        return
      </CharString>
      <CharString index="127">
        -103 20 145 76 hhcurveto
        6 6 -1 -3 6 hvcurveto
        return
      </CharString>
      <CharString index="128">
        rmoveto
        -6 -4 4 -6 12 33 2 49 37 hhcurveto
        return
      </CharString>
      <CharString index="129">
        rmoveto
        -47 callsubr
        return
      </CharString>
      <CharString index="130">
        hvcurveto
        -177 return
      </CharString>
      <CharString index="131">
        rmoveto
        102 139 2 76 -38 callsubr
        return
      </CharString>
      <CharString index="132">
        hstemhm
        43 29 464 51 -26 66 64 28 return
      </CharString>
      <CharString index="133">
        -3 -18 -3 hvcurveto
        return
      </CharString>
      <CharString index="134">
        -190 13 callsubr
        30 -58 97 return
      </CharString>
      <CharString index="135">
        hhcurveto
        0 -4 return
      </CharString>
      <CharString index="136">
        -146 -80 -304 128 hhcurveto
        return
      </CharString>
      <CharString index="137">
        425 rmoveto
        19 0 23 -19 hhcurveto
        return
      </CharString>
      <CharString index="138">
        27 249 151 -27 27 hstemhm
        return
      </CharString>
      <CharString index="139">
        1 0 hvcurveto
        46 4 17 -18 hhcurveto
        return
      </CharString>
      <CharString index="140">
        -53 -7 -25 21 hhcurveto
        return
      </CharString>
      <CharString index="141">
        -11 -10 1 return
      </CharString>
</ttFont>
